<svg viewBox="0 0 400 300" xmlns="http://www.w3.org/2000/svg" xmlns:xlink="http://www.w3.org/1999/xlink" id="Layer_1" overflow="hidden"><path d="M292 155.28C292 155.28 306.83 152.88 305.83 161.95L292 161.95Z" fill="#F4A28C"/><path d="M259.08 138.78 254.6 160.53 279.76 160.53 276.33 135.53 259.08 138.78Z" fill="#C9C9C9"/><rect x="217.47" y="68.57" width="99.81" height="67.79" fill="#24285B"/><rect x="252.54" y="113.39" width="31.4" height="2.95" fill="#68BCFD"/><rect x="266.53" y="121.13" width="31.4" height="2.95" fill="#FFD200"/><rect x="217.47" y="130.53" width="99.81" height="12.83" fill="#E6E6E6"/><rect x="244.98" y="106.26" width="26.35" height="2.95" fill="#68BCFD"/><rect x="276.81" y="106.26" width="26.35" height="2.95" fill="#68BCFD"/><rect x="252.54" y="98.05" width="23.56" height="2.95" fill="#FFD200"/><rect x="282.23" y="98.05" width="23.56" height="2.95" fill="#FFD200"/><rect x="235.21" y="113.39" width="11.81" height="2.95" fill="#FFFFFF"/><rect x="246.97" y="121.13" width="11.81" height="2.95" fill="#FFFFFF"/><rect x="227.65" y="106.26" width="11.81" height="2.95" fill="#FFFFFF"/><path d="M230.51 92.37C230.51 92.37 279.27 87.47 268.51 143.37L272.22 157 257 148.74 258.22 143.38 250.16 143.38Z" opacity="0.14"/><circle cx="230.51" cy="75.23" r="1.39" fill="#68BCFD"/><circle cx="234.41" cy="75.23" r="1.39" fill="#FFD200"/><rect x="227.65" y="83.83" width="11.81" height="2.95" fill="#FFFFFF"/><rect x="235.21" y="91.21" width="11.81" height="2.95" fill="#FFFFFF"/><rect x="252.54" y="91.21" width="23.56" height="2.95" fill="#FFD200"/><rect x="282.23" y="91.21" width="23.56" height="2.95" fill="#FFD200"/><rect x="235.21" y="98.05" width="11.81" height="2.95" fill="#FFFFFF"/><rect x="244.18" y="83.83" width="24.33" height="2.95" fill="#68BCFD"/><rect x="273.6" y="83.83" width="17.27" height="2.95" fill="#68BCFD"/><circle cx="268.51" cy="136.49" r="3.71" fill="#A5A5A5"/><rect x="77.14" y="157.03" width="50.17" height="3.5" fill="#C9C9C9"/><path d="M97.14 155.28C97.14 155.28 82.31 152.88 83.31 161.95L97.14 161.95Z" fill="#F4A28C"/><path d="M124.72 138.78 120.24 160.53 145.4 160.53 141.97 135.53 124.72 138.78Z" fill="#C9C9C9"/><rect x="78.93" y="68.57" width="99.81" height="67.79" fill="#24285B"/><rect x="114" y="113.39" width="31.4" height="2.95" fill="#68BCFD"/><rect x="78.93" y="130.53" width="99.81" height="12.83" fill="#E6E6E6"/><rect x="106.44" y="106.26" width="26.35" height="2.95" fill="#68BCFD"/><rect x="114" y="98.05" width="23.56" height="2.95" fill="#FFD200"/><rect x="96.67" y="113.39" width="11.81" height="2.95" fill="#FFFFFF"/><rect x="108.43" y="121.13" width="11.81" height="2.95" fill="#FFFFFF"/><rect x="89.11" y="106.26" width="11.81" height="2.95" fill="#FFFFFF"/><circle cx="87.84" cy="75.23" r="1.39" fill="#FFFFFF"/><circle cx="91.97" cy="75.23" r="1.39" fill="#68BCFD"/><circle cx="95.87" cy="75.23" r="1.39" fill="#FFD200"/><rect x="89.11" y="83.83" width="11.81" height="2.95" fill="#FFFFFF"/><rect x="96.67" y="91.21" width="11.81" height="2.95" fill="#FFFFFF"/><rect x="114" y="91.21" width="23.56" height="2.95" fill="#FFD200"/><rect x="96.67" y="98.05" width="11.81" height="2.95" fill="#FFFFFF"/><rect x="105.64" y="83.83" width="24.33" height="2.95" fill="#68BCFD"/><ellipse cx="196.06" cy="242.16" rx="161.5" ry="20.93" fill="#E6E6E6" opacity="0.45"/><path d="M171.62 90.14C171.62 90.14 136.81 92.53 134.14 111.86 132.66 122.6 135.6 132.31 138.51 138.86 140.084 142.391 138.497 146.53 134.966 148.103 134.351 148.378 133.698 148.562 133.03 148.65L97.14 153.65 97.14 162 147.08 160.52C157.567 160.21 166.162 152.101 167.08 141.65Z" fill="#68BCFD"/><path d="M217.47 90.14C217.47 90.14 252.28 92.53 254.95 111.86 256.43 122.6 253.49 132.31 250.58 138.86 249.006 142.391 250.593 146.53 254.124 148.103 254.739 148.378 255.392 148.562 256.06 148.65L291.95 153.65 291.95 162 242 160.47C231.515 160.156 222.923 152.049 222 141.6Z" fill="#68BCFD"/><path d="M171.62 90.14C171.62 90.14 136.81 92.53 134.14 111.86 132.66 122.6 135.6 132.31 138.51 138.86 140.084 142.391 138.497 146.53 134.966 148.103 134.351 148.378 133.698 148.562 133.03 148.65L97.14 153.65 97.14 162 147.08 160.52C157.567 160.21 166.162 152.101 167.08 141.65Z" fill="#FFFFFF" opacity="0.46"/><path d="M217.47 90.14C217.47 90.14 252.28 92.53 254.95 111.86 256.43 122.6 253.49 132.31 250.58 138.86 249.006 142.391 250.593 146.53 254.124 148.103 254.739 148.378 255.392 148.562 256.06 148.65L291.95 153.65 291.95 162 242 160.47C231.515 160.156 222.923 152.049 222 141.6Z" fill="#FFFFFF" opacity="0.46"/><rect x="63.81" y="168.25" width="262.5" height="73.92" fill="#C9C9C9"/><rect x="63.81" y="160.53" width="262.5" height="18.07" fill="#E6E6E6"/><path d="M191.33 90.14 195.58 71.61C195.58 71.61 195.72 62.93 201.29 64.95 206.86 66.97 208.53 77.03 205.53 80.43 202.53 83.83 200.53 79.19 200.53 79.19L200.53 89.44Z" fill="#F4A28C"/><path d="M264.8 161.15C264.8 161.15 241.73 166.06 251.37 175.37 261.01 184.68 255.69 197.77 249.01 201.55 242.33 205.33 214.66 209.89 223.5 241.78L192.31 241.78 190.01 224.78 170.01 203.66 178.75 183.29 203.34 149.86 220 163.67 229.12 160.53Z" opacity="0.1"/><path d="M185.78 89.29C185.78 89.29 151.08 86.2 146.55 109.63 142.02 133.06 174.31 177.28 174.31 177.28L219.31 175.53C219.31 175.53 289.22 77.33 185.78 89.29Z" fill="#68BCFD"/><path d="M190 224.75C190 224.75 192 227.39 190.69 229.89 189.38 232.39 191.27 234.51 193.25 232.77 195.23 231.03 196.05 223.77 196.05 223.77L191.58 221.16Z" fill="#68BCFD"/><path d="M174.31 177.28C174.31 177.28 171.31 193.03 178.06 193.78 184.81 194.53 232.56 196.66 240.56 189.97 248.56 183.28 246.56 174.03 219.31 175.53Z" fill="#24285B"/><path d="M173.92 180C173.92 180 153.06 196.3 163.81 208.3 174.56 220.3 190.06 227.3 190.06 227.3L192.31 221.55C192.31 221.55 159.81 196.3 190.56 191.3Z" fill="#24285B"/><rect x="165.47" y="126.95" rx="22.88" ry="22.88" width="58.03" height="45.76" fill="#FFD200"/><rect x="188.52" y="149.83" width="11.42" height="45.83" fill="#FFD200"/><rect x="188.52" y="149.83" width="11.42" height="45.83" opacity="0.08"/><rect x="171.62" y="189.97" width="45.85" height="13.69" fill="#FFD200"/><path d="M192.64 77.68 192.71 73.29C192.77 71.2485 191.998 69.2703 190.57 67.81 189.35 66.8597 189.132 65.1003 190.082 63.8804 190.085 63.8769 190.087 63.8735 190.09 63.87 192.39 60.58 194.33 62.71 196.65 59.8 198.97 56.89 200.72 56.32 203.43 59.8 206.14 63.28 208.27 59.22 209.82 63.48 211.37 67.74 210.01 69.87 204.01 70.26 198.91 70.59 200.49 76.37 195.76 79.41 194.845 80.0293 193.602 79.7899 192.983 78.8753 192.744 78.5234 192.624 78.1047 192.64 77.68Z" fill="#24285B"/><rect x="190.6" y="203.65" width="7.28" height="31.63" fill="#FFD200"/><rect x="190.6" y="203.65" width="7.28" height="31.63" opacity="0.08"/><path d="M190.6 235.28 176.52 248.28 213.06 248.28 197.87 235.28 190.6 235.28Z" fill="#FFD200"/><rect x="286.14" y="185.03" width="27" height="46.75" fill="#A5A5A5"/><rect x="273.48" y="178.6" width="6.33" height="63.57" fill="#E6E6E6"/><rect x="319.98" y="178.6" width="6.33" height="63.57" fill="#E6E6E6"/><rect x="279.19" y="231.78" width="47.13" height="10.38" fill="#E6E6E6"/><rect x="63.81" y="178.6" width="13.33" height="63.57" fill="#E6E6E6"/><rect x="77.14" y="224.19" width="38" height="7.59" fill="#A5A5A5" opacity="0.42"/><rect x="77.14" y="231.48" width="57.24" height="10.68" fill="#A5A5A5"/><rect x="135.06" y="83.83" width="17.27" height="2.95" fill="#68BCFD"/><circle cx="132.55" cy="136.49" r="3.71" fill="#A5A5A5"/><circle cx="226.38" cy="75.23" r="1.39" fill="#FFFFFF"/><rect x="296.16" y="53.5" width="38.75" height="26.64" fill="#FFD200"/><path d="M310.33 72.05C310.13 72.0509 309.936 71.9839 309.78 71.86L304 67.27C303.788 67.0993 303.663 66.8425 303.66 66.57 303.659 66.296 303.78 66.0357 303.99 65.86L309.8 61.19C310.196 60.8899 310.761 60.9679 311.061 61.3641 311.348 61.7432 311.291 62.2801 310.93 62.59L305.99 66.59 310.92 70.48C311.309 70.7809 311.38 71.3399 311.079 71.7286 311.076 71.7324 311.073 71.7362 311.07 71.74 310.888 71.9563 310.612 72.0717 310.33 72.05Z" fill="#FFFFFF"/><path d="M320.85 72.05C320.577 72.0516 320.318 71.926 320.15 71.71 319.843 71.3263 319.905 70.7662 320.289 70.459 320.292 70.456 320.296 70.453 320.3 70.45L325.22 66.56 320.29 62.56C319.876 62.2852 319.763 61.7267 320.038 61.3125 320.312 60.8983 320.871 60.7853 321.285 61.0601 321.33 61.0896 321.371 61.123 321.41 61.16L327.23 65.83C327.44 66.0057 327.561 66.266 327.56 66.54 327.557 66.8125 327.432 67.0693 327.22 67.24L321.41 71.83C321.254 71.9654 321.056 72.0431 320.85 72.05Z" fill="#FFFFFF"/><path d="M313.16 72.05C313.029 72.0523 312.899 72.025 312.78 71.97 312.331 71.7617 312.135 71.2302 312.34 70.78L316.57 61.51C316.777 61.0571 317.312 60.8579 317.765 61.065 318.218 61.2721 318.417 61.8071 318.21 62.26L314 71.53C313.853 71.859 313.52 72.065 313.16 72.05Z" fill="#FFFFFF"/><path d="M94 212.87C94 212.87 84.79 210.35 82.78 201.78 82.78 201.78 97.06 198.9 97.46 213.63Z" fill="#68BCFD" opacity="0.58"/><path d="M95.08 212C95.08 212 88.64 201.82 94.31 192.31 94.31 192.31 105.16 199.2 100.31 212.02Z" fill="#68BCFD" opacity="0.73"/><path d="M96.74 212C96.74 212 100.14 201.26 110.42 199.22 110.42 199.22 112.34 206.22 103.76 212.03Z" fill="#68BCFD"/><path d="M90.06 211.72 91.92 224.5 103.68 224.55 105.42 211.79 90.06 211.72Z" fill="#24285B"/><circle cx="304.21" cy="195.73" r="3.46" fill="#FFFFFF"/><rect x="290.75" y="203.65" width="18.83" height="23.63" fill="#FFFFFF" opacity="0.18"/></svg>