<svg viewBox="0 0 511 511" xmlns="http://www.w3.org/2000/svg" xmlns:xlink="http://www.w3.org/1999/xlink" id="Capa_1" overflow="hidden"><g><path d="M39.5 103C41.47 103 43.41 102.2 44.8 100.8 46.2 99.41 47 97.47 47 95.5 47 93.53 46.2 91.59 44.8 90.2 43.41 88.8 41.47 88 39.5 88 37.52 88 35.59 88.8 34.2 90.2 32.8 91.59 32 93.52 32 95.5 32 97.47 32.8 99.41 34.2 100.8 35.59 102.2 37.53 103 39.5 103Z" fill="#FFFFFF"/><path d="M63.5 103C65.48 103 67.41 102.2 68.8 100.8 70.2 99.41 71 97.48 71 95.5 71 93.53 70.2 91.59 68.8 90.2 67.41 88.8 65.48 88 63.5 88 61.53 88 59.59 88.8 58.2 90.2 56.8 91.59 56 93.53 56 95.5 56 97.47 56.8 99.41 58.2 100.8 59.59 102.2 61.53 103 63.5 103Z" fill="#FFFFFF"/><path d="M87.5 103C89.47 103 91.41 102.2 92.8 100.8 94.2 99.41 95 97.47 95 95.5 95 93.53 94.2 91.59 92.8 90.2 91.41 88.8 89.47 88 87.5 88 85.53 88 83.59 88.8 82.2 90.2 80.8 91.59 80 93.53 80 95.5 80 97.47 80.8 99.41 82.2 100.8 83.59 102.2 85.53 103 87.5 103Z" fill="#FFFFFF"/><path d="M119.5 103 423.5 103C427.642 103 431 99.642 431 95.5 431 91.358 427.642 88 423.5 88L119.5 88C115.358 88 112 91.358 112 95.5 112 99.642 115.358 103 119.5 103Z" fill="#FFFFFF"/><path d="M455.5 103 471.5 103C475.642 103 479 99.642 479 95.5 479 91.358 475.642 88 471.5 88L455.5 88C451.358 88 448 91.358 448 95.5 448 99.642 451.358 103 455.5 103Z" fill="#FFFFFF"/><path d="M87.5 168 71.5 168C54.131 168 40 182.131 40 199.5L40 247.5C40 264.869 54.131 279 71.5 279L87.5 279C104.869 279 119 264.869 119 247.5L119 199.5C119 182.131 104.869 168 87.5 168ZM104 247.5C104 256.598 96.598 264 87.5 264L71.5 264C62.402 264 55 256.598 55 247.5L55 199.5C55 190.402 62.402 183 71.5 183L87.5 183C96.598 183 104 190.402 104 199.5L104 247.5Z" fill="#FFFFFF"/><path d="M343 247.5 343 199.5C343 182.131 328.869 168 311.5 168L295.5 168C278.131 168 264 182.131 264 199.5L264 247.5C264 264.869 278.131 279 295.5 279L311.5 279C328.869 279 343 264.869 343 247.5ZM328 247.5C328 256.598 320.598 264 311.5 264L295.5 264C286.402 264 279 256.598 279 247.5L279 199.5C279 190.402 286.402 183 295.5 183L311.5 183C320.598 183 328 190.402 328 199.5L328 247.5Z" fill="#FFFFFF"/><path d="M167.5 296 151.5 296C134.131 296 120 310.131 120 327.5L120 375.5C120 392.869 134.131 407 151.5 407L167.5 407C184.869 407 199 392.869 199 375.5L199 327.5C199 310.131 184.869 296 167.5 296ZM184 375.5C184 384.598 176.598 392 167.5 392L151.5 392C142.402 392 135 384.598 135 375.5L135 327.5C135 318.402 142.402 311 151.5 311L167.5 311C176.598 311 184 318.402 184 327.5L184 375.5Z" fill="#FFFFFF"/><path d="M263.5 296 247.5 296C230.131 296 216 310.131 216 327.5L216 375.5C216 392.869 230.131 407 247.5 407L263.5 407C280.869 407 295 392.869 295 375.5L295 327.5C295 310.131 280.869 296 263.5 296ZM280 375.5C280 384.598 272.598 392 263.5 392L247.5 392C238.402 392 231 384.598 231 375.5L231 327.5C231 318.402 238.402 311 247.5 311L263.5 311C272.598 311 280 318.402 280 327.5L280 375.5Z" fill="#FFFFFF"/><path d="M423.5 296 407.5 296C390.131 296 376 310.131 376 327.5L376 375.5C376 392.869 390.131 407 407.5 407L423.5 407C440.869 407 455 392.869 455 375.5L455 327.5C455 310.131 440.869 296 423.5 296ZM440 375.5C440 384.598 432.598 392 423.5 392L407.5 392C398.402 392 391 384.598 391 375.5L391 327.5C391 318.402 398.402 311 407.5 311L423.5 311C432.598 311 440 318.402 440 327.5L440 375.5Z" fill="#FFFFFF"/><path d="M143.5 264C139.358 264 136 267.358 136 271.5 136 275.642 139.358 279 143.5 279L175.5 279C179.642 279 183 275.642 183 271.5 183 267.358 179.642 264 175.5 264L167 264 167 175.5C167 171.358 163.642 168 159.5 168 155.358 168 152 171.358 152 175.5L152 184 143.5 184C139.358 184 136 187.358 136 191.5 136 195.642 139.358 199 143.5 199L152 199 152 264 143.5 264Z" fill="#FFFFFF"/><path d="M95.5 392 87 392 87 303.5C87 299.358 83.642 296 79.5 296 75.358 296 72 299.358 72 303.5L72 312 63.5 312C59.358 312 56 315.358 56 319.5 56 323.642 59.358 327 63.5 327L72 327 72 392 63.5 392C59.358 392 56 395.358 56 399.5 56 403.642 59.358 407 63.5 407L95.5 407C99.642 407 103 403.642 103 399.5 103 395.358 99.642 392 95.5 392Z" fill="#FFFFFF"/><path d="M351.5 392 343 392 343 303.5C343 299.358 339.642 296 335.5 296 331.358 296 328 299.358 328 303.5L328 312 319.5 312C315.358 312 312 315.358 312 319.5 312 323.642 315.358 327 319.5 327L328 327 328 392 319.5 392C315.358 392 312 395.358 312 399.5 312 403.642 315.358 407 319.5 407L351.5 407C355.642 407 359 403.642 359 399.5 359 395.358 355.642 392 351.5 392Z" fill="#FFFFFF"/><path d="M239.5 279C243.642 279 247 275.642 247 271.5 247 267.358 243.642 264 239.5 264L231 264 231 175.5C231 171.358 227.642 168 223.5 168 219.358 168 216 171.358 216 175.5L216 184 207.5 184C203.358 184 200 187.358 200 191.5 200 195.642 203.358 199 207.5 199L216 199 216 264 207.5 264C203.358 264 200 267.358 200 271.5 200 275.642 203.358 279 207.5 279L239.5 279Z" fill="#FFFFFF"/><path d="M399.5 279C403.642 279 407 275.642 407 271.5 407 267.358 403.642 264 399.5 264L391 264 391 175.5C391 171.358 387.642 168 383.5 168 379.358 168 376 171.358 376 175.5L376 184 367.5 184C363.358 184 360 187.358 360 191.5 360 195.642 363.358 199 367.5 199L376 199 376 264 367.5 264C363.358 264 360 267.358 360 271.5 360 275.642 363.358 279 367.5 279L399.5 279Z" fill="#FFFFFF"/><path d="M463.5 264 455 264 455 175.5C455 171.358 451.642 168 447.5 168 443.358 168 440 171.358 440 175.5L440 184 431.5 184C427.358 184 424 187.358 424 191.5 424 195.642 427.358 199 431.5 199L440 199 440 264 431.5 264C427.358 264 424 267.358 424 271.5 424 275.642 427.358 279 431.5 279L463.5 279C467.642 279 471 275.642 471 271.5 471 267.358 467.642 264 463.5 264Z" fill="#FFFFFF"/><path d="M471.5 56 39.5 56C17.72 56 0 73.72 0 95.5L0 415.5C0 437.28 17.72 455 39.5 455L471.5 455C493.28 455 511 437.28 511 415.5L511 95.5C511 73.72 493.28 56 471.5 56ZM39.5 71 471.5 71C485.009 71 496 81.991 496 95.5L496 120 15 120 15 95.5C15 81.991 25.991 71 39.5 71ZM471.5 440 39.5 440C25.991 440 15 429.009 15 415.5L15 135 496 135 496 415.5C496 429.009 485.009 440 471.5 440Z" fill="#FFFFFF"/></g><g></g><g></g><g></g><g></g><g></g><g></g><g></g><g></g><g></g><g></g><g></g><g></g><g></g><g></g><g></g></svg>