<svg width="1250" height="1250" viewBox="0 0 937.5 937.5" xmlns="http://www.w3.org/2000/svg" xmlns:xlink="http://www.w3.org/1999/xlink" overflow="hidden"><g id="surface1"><path d="M921.875 0 328.125 0C319.492 0 312.5 6.99219 312.5 15.625L312.5 140.625C312.5 149.258 319.492 156.25 328.125 156.25L375 156.25 375 187.5 328.125 187.5C319.492 187.5 312.5 194.492 312.5 203.125L312.5 218.75 906.25 218.75 906.25 312.5 781.25 312.5 781.25 406.25 906.25 406.25 906.25 500 781.25 500 781.25 593.75 906.25 593.75 906.25 687.5 781.25 687.5 781.25 765.625C781.25 774.258 788.242 781.25 796.875 781.25L859.375 781.25C868.008 781.25 875 774.258 875 765.625L875 718.75 921.875 718.75C930.508 718.75 937.5 711.758 937.5 703.125L937.5 578.125C937.5 569.492 930.508 562.5 921.875 562.5L875 562.5 875 531.25 921.875 531.25C930.508 531.25 937.5 524.258 937.5 515.625L937.5 390.625C937.5 381.992 930.508 375 921.875 375L875 375 875 343.75 921.875 343.75C930.508 343.75 937.5 336.758 937.5 328.125L937.5 203.125C937.5 194.492 930.508 187.5 921.875 187.5L875 187.5 875 156.25 921.875 156.25C930.508 156.25 937.5 149.258 937.5 140.625L937.5 15.625C937.5 6.99219 930.508 0 921.875 0ZM843.75 375 812.5 375 812.5 343.75 843.75 343.75ZM843.75 562.5 812.5 562.5 812.5 531.25 843.75 531.25ZM843.75 750 812.5 750 812.5 718.75 843.75 718.75ZM437.5 187.5 406.25 187.5 406.25 156.25 437.5 156.25ZM781.25 187.5 468.75 187.5 468.75 156.25 781.25 156.25ZM843.75 187.5 812.5 187.5 812.5 156.25 843.75 156.25ZM906.25 125 343.75 125 343.75 31.25 906.25 31.25Z" fill="#FFFFFF"/><path d="M843.75 62.5 875 62.5 875 93.75 843.75 93.75Z" fill="#FFFFFF"/><path d="M781.25 62.5 812.5 62.5 812.5 93.75 781.25 93.75Z" fill="#FFFFFF"/><path d="M718.75 62.5 750 62.5 750 93.75 718.75 93.75Z" fill="#FFFFFF"/><path d="M375 62.5 406.25 62.5 406.25 93.75 375 93.75Z" fill="#FFFFFF"/><path d="M843.75 250 875 250 875 281.25 843.75 281.25Z" fill="#FFFFFF"/><path d="M781.25 250 812.5 250 812.5 281.25 781.25 281.25Z" fill="#FFFFFF"/><path d="M843.75 437.5 875 437.5 875 468.75 843.75 468.75Z" fill="#FFFFFF"/><path d="M781.25 437.5 812.5 437.5 812.5 468.75 781.25 468.75Z" fill="#FFFFFF"/><path d="M843.75 625 875 625 875 656.25 843.75 656.25Z" fill="#FFFFFF"/><path d="M781.25 625 812.5 625 812.5 656.25 781.25 656.25Z" fill="#FFFFFF"/><path d="M62.5 937.5 687.5 937.5C722.016 937.5 750 909.516 750 875L750 312.5C750 277.984 722.016 250 687.5 250L62.5 250C27.9844 250 0 277.984 0 312.5L0 875C0 909.516 27.9844 937.5 62.5 937.5ZM31.25 312.5C31.25 295.238 45.2383 281.25 62.5 281.25L687.5 281.25C704.762 281.25 718.75 295.238 718.75 312.5L718.75 875C718.75 892.262 704.762 906.25 687.5 906.25L62.5 906.25C45.2383 906.25 31.25 892.262 31.25 875Z" fill="#FFFFFF"/><path d="M62.5 312.5 93.75 312.5 93.75 343.75 62.5 343.75Z" fill="#FFFFFF"/><path d="M125 312.5 156.25 312.5 156.25 343.75 125 343.75Z" fill="#FFFFFF"/><path d="M187.5 312.5 218.75 312.5 218.75 343.75 187.5 343.75Z" fill="#FFFFFF"/><path d="M62.5 375 687.5 375 687.5 406.25 62.5 406.25Z" fill="#FFFFFF"/><path d="M78.125 656.25 671.875 656.25C680.508 656.25 687.5 649.258 687.5 640.625L687.5 453.125C687.5 444.492 680.508 437.5 671.875 437.5L78.125 437.5C69.4922 437.5 62.5 444.492 62.5 453.125L62.5 640.625C62.5 649.258 69.4922 656.25 78.125 656.25ZM93.75 468.75 656.25 468.75 656.25 625 93.75 625Z" fill="#FFFFFF"/><path d="M359.375 562.5 390.625 562.5 390.625 593.75 359.375 593.75Z" fill="#FFFFFF"/><path d="M296.875 562.5 328.125 562.5 328.125 593.75 296.875 593.75Z" fill="#FFFFFF"/><path d="M234.375 562.5 265.625 562.5 265.625 593.75 234.375 593.75Z" fill="#FFFFFF"/><path d="M421.875 562.5 453.125 562.5 453.125 593.75 421.875 593.75Z" fill="#FFFFFF"/><path d="M484.375 562.5 515.625 562.5 515.625 593.75 484.375 593.75Z" fill="#FFFFFF"/><path d="M78.125 812.5 234.375 812.5C243.008 812.5 250 805.508 250 796.875L250 703.125C250 694.492 243.008 687.5 234.375 687.5L78.125 687.5C69.4922 687.5 62.5 694.492 62.5 703.125L62.5 796.875C62.5 805.508 69.4922 812.5 78.125 812.5ZM93.75 718.75 218.75 718.75 218.75 781.25 93.75 781.25Z" fill="#FFFFFF"/><path d="M453.125 687.5 296.875 687.5C288.242 687.5 281.25 694.492 281.25 703.125L281.25 796.875C281.25 805.508 288.242 812.5 296.875 812.5L453.125 812.5C461.758 812.5 468.75 805.508 468.75 796.875L468.75 703.125C468.75 694.492 461.758 687.5 453.125 687.5ZM437.5 781.25 312.5 781.25 312.5 718.75 437.5 718.75Z" fill="#FFFFFF"/><path d="M671.875 687.5 515.625 687.5C506.992 687.5 500 694.492 500 703.125L500 796.875C500 805.508 506.992 812.5 515.625 812.5L671.875 812.5C680.508 812.5 687.5 805.508 687.5 796.875L687.5 703.125C687.5 694.492 680.508 687.5 671.875 687.5ZM656.25 781.25 531.25 781.25 531.25 718.75 656.25 718.75Z" fill="#FFFFFF"/><path d="M62.5 843.75 250 843.75 250 875 62.5 875Z" fill="#FFFFFF"/><path d="M281.25 843.75 468.75 843.75 468.75 875 281.25 875Z" fill="#FFFFFF"/><path d="M500 843.75 687.5 843.75 687.5 875 500 875Z" fill="#FFFFFF"/></g></svg>