<svg width="43" height="43" xmlns="http://www.w3.org/2000/svg" xmlns:xlink="http://www.w3.org/1999/xlink" overflow="hidden"><defs><clipPath id="clip0"><rect x="399" y="170" width="43" height="43"/></clipPath><clipPath id="clip1"><rect x="400" y="170" width="41" height="42"/></clipPath><clipPath id="clip2"><rect x="400" y="170" width="41" height="42"/></clipPath><clipPath id="clip3"><rect x="400" y="170" width="41" height="42"/></clipPath></defs><g clip-path="url(#clip0)" transform="translate(-399 -170)"><g clip-path="url(#clip1)"><g clip-path="url(#clip2)"><g clip-path="url(#clip3)"><path d="M12.9748 30.1606 3.31417 20.5 12.7612 11.0529 14.5721 12.8638 6.93583 20.5 14.7856 28.3498 12.9748 30.1606Z" fill="#FFFFFF" transform="matrix(1 0 0 1.02439 400 170)"/><path d="M27.8117 30.1606 26.0008 28.3498 33.8506 20.5 26.2144 12.8638 28.0252 11.0529 37.4723 20.5 27.8117 30.1606Z" fill="#FFFFFF" transform="matrix(1 0 0 1.02439 400 170)"/><path d="M22.6354 20.5C22.6354 21.6794 21.6794 22.6354 20.5 22.6354 19.3206 22.6354 18.3646 21.6794 18.3646 20.5 18.3646 19.3206 19.3206 18.3646 20.5 18.3646 21.6794 18.3646 22.6354 19.3206 22.6354 20.5Z" fill="#FFFFFF" transform="matrix(1 0 0 1.02439 400 170)"/><path d="M15.8021 20.5C15.8021 21.6794 14.846 22.6354 13.6667 22.6354 12.4873 22.6354 11.5313 21.6794 11.5313 20.5 11.5313 19.3206 12.4873 18.3646 13.6667 18.3646 14.846 18.3646 15.8021 19.3206 15.8021 20.5Z" fill="#FFFFFF" transform="matrix(1 0 0 1.02439 400 170)"/><path d="M29.4688 20.5C29.4688 21.6794 28.5127 22.6354 27.3333 22.6354 26.154 22.6354 25.1979 21.6794 25.1979 20.5 25.1979 19.3206 26.154 18.3646 27.3333 18.3646 28.5127 18.3646 29.4688 19.3206 29.4688 20.5Z" fill="#FFFFFF" transform="matrix(1 0 0 1.02439 400 170)"/></g></g></g></g></svg>