<svg width="36" height="36" xmlns="http://www.w3.org/2000/svg" xmlns:xlink="http://www.w3.org/1999/xlink" overflow="hidden"><defs><clipPath id="clip0"><rect x="761" y="621" width="36" height="36"/></clipPath><clipPath id="clip1"><rect x="762" y="621" width="34" height="35"/></clipPath><clipPath id="clip2"><rect x="762" y="621" width="34" height="35"/></clipPath><clipPath id="clip3"><rect x="762" y="621" width="34" height="35"/></clipPath></defs><g clip-path="url(#clip0)" transform="translate(-761 -621)"><g clip-path="url(#clip1)"><g clip-path="url(#clip2)"><g clip-path="url(#clip3)"><path d="M5.3125 9.89896C6.01577 9.89804 6.65185 9.48101 6.93317 8.83646L8.5 8.83646C8.89121 8.83646 9.20833 9.15358 9.20833 9.54479L9.20833 14.1971C9.56962 14.064 9.94642 13.9777 10.3296 13.9404 10.3985 13.6247 10.4974 13.3163 10.625 13.0195L10.625 9.54479C10.6236 8.37176 9.67303 7.42117 8.5 7.41979L6.93317 7.41979C6.54195 6.52343 5.49819 6.11394 4.60183 6.50512 3.70547 6.89633 3.29597 7.9401 3.68719 8.83646 3.96918 9.48256 4.60753 9.89988 5.3125 9.89896Z" fill="#FFFFFF" transform="matrix(1 0 0 1.02941 762 621)"/><path d="M6.69021 20.2686C6.67427 20.2357 6.66152 20.2024 6.64665 20.1698L3.89583 20.1698C3.50463 20.1698 3.1875 19.8527 3.1875 19.4615L3.1875 17.5405C4.08386 17.1492 4.49335 16.1055 4.10217 15.2091 3.71096 14.3128 2.66719 13.9033 1.77083 14.2944 0.874476 14.6857 0.464968 15.7294 0.85617 16.6258 1.03481 17.0351 1.36152 17.3618 1.77083 17.5405L1.77083 19.4615C1.7722 20.6345 2.72279 21.5851 3.89583 21.5865L7.65921 21.5865C7.25705 21.2113 6.92846 20.7643 6.69021 20.2686Z" fill="#FFFFFF" transform="matrix(1 0 0 1.02941 762 621)"/><path d="M15.5833 5.49879 15.5833 9.91029C16.0648 9.92786 16.5416 10.012 17 10.1603L17 5.49879C17.8964 5.10758 18.3058 4.06381 17.9147 3.16746 17.5235 2.27111 16.4797 1.8616 15.5833 2.2528 14.687 2.644 14.2775 3.68776 14.6687 4.58412 14.8473 4.99343 15.174 5.32015 15.5833 5.49879Z" fill="#FFFFFF" transform="matrix(1 0 0 1.02941 762 621)"/><path d="M22.7588 12.7146C22.8494 12.7783 22.9358 12.847 23.0208 12.9165L23.0208 11.6698C23.0208 11.2786 23.338 10.9615 23.7292 10.9615L25.8542 10.9615C27.0272 10.9601 27.9778 10.0095 27.9792 8.83646L27.9792 8.33212C28.8755 7.94091 29.285 6.89715 28.8938 6.00079 28.5026 5.10443 27.4589 4.69494 26.5625 5.08612 25.6661 5.47733 25.2567 6.52109 25.6478 7.41745 25.8265 7.82676 26.1532 8.15348 26.5625 8.33212L26.5625 8.83646C26.5625 9.22767 26.2454 9.54479 25.8542 9.54479L23.7292 9.54479C22.5561 9.54596 21.6053 10.4967 21.6042 11.6698L21.6042 12.1359C22.0149 12.2722 22.4038 12.4671 22.7588 12.7146Z" fill="#FFFFFF" transform="matrix(1 0 0 1.02941 762 621)"/><path d="M12.0417 22.8112 12.0417 23.7115C12.0417 24.1027 11.7245 24.4198 11.3333 24.4198L9.20833 24.4198C8.03523 24.421 7.0845 25.3717 7.08333 26.5448L7.08333 27.0491C6.18697 27.4403 5.77749 28.4841 6.16866 29.3805 6.55987 30.2768 7.60364 30.6863 8.5 30.2951 9.39636 29.9039 9.80585 28.8602 9.41467 27.9638 9.23603 27.5544 8.90931 27.2278 8.5 27.0491L8.5 26.5448C8.5 26.1536 8.81712 25.8365 9.20833 25.8365L11.3333 25.8365C12.5064 25.8351 13.457 24.8845 13.4583 23.7115L13.4583 22.8112Z" fill="#FFFFFF" transform="matrix(1 0 0 1.02941 762 621)"/><path d="M31.5208 15.2115C30.8176 15.2124 30.1815 15.6294 29.9002 16.274L26.3893 16.274C26.8204 16.6645 27.1556 17.1493 27.3686 17.6906L29.9002 17.6906C30.2914 18.587 31.3351 18.9965 32.2315 18.6053 33.1279 18.2141 33.5374 17.1703 33.1462 16.274 32.8642 15.6279 32.2258 15.2105 31.5208 15.2115Z" fill="#FFFFFF" transform="matrix(1 0 0 1.02941 762 621)"/><path d="M28.3333 24.774C27.6301 24.7749 26.994 25.1919 26.7127 25.8365L25.1458 25.8365C24.7546 25.8365 24.4375 25.5193 24.4375 25.1281L24.4375 22.7577C24.2352 22.792 24.0304 22.8099 23.8251 22.8112L23.0208 22.8112 23.0208 25.1281C23.0222 26.3012 23.9728 27.2517 25.1458 27.2531L26.7127 27.2531C27.1039 28.1495 28.1476 28.559 29.044 28.1678 29.9404 27.7766 30.3499 26.7328 29.9587 25.8365 29.6767 25.1904 29.0383 24.773 28.3333 24.774Z" fill="#FFFFFF" transform="matrix(1 0 0 1.02941 762 621)"/><path d="M18.7708 28.1116 18.7708 22.8112 17.3542 22.8112 17.3542 28.1116C16.4578 28.5028 16.0483 29.5466 16.4395 30.443 16.8307 31.3393 17.8745 31.7488 18.7708 31.3576 19.6672 30.9664 20.0767 29.9227 19.6855 29.0263 19.5069 28.6169 19.1801 28.2903 18.7708 28.1116Z" fill="#FFFFFF" transform="matrix(1 0 0 1.02941 762 621)"/><path d="M23.8251 16.3434C23.7489 16.3414 23.6727 16.3452 23.5971 16.3547L23.5971 16.3434C23.5951 15.2427 23.0549 14.2126 22.1506 13.5851 21.2399 12.9521 20.0809 12.7941 19.034 13.1601 18.1548 11.4948 16.2592 10.6365 14.4277 11.0744 12.5995 11.4969 11.2981 13.1157 11.2781 14.9919L11.2781 15.0273C10.0282 14.8289 8.77026 15.3321 8.00204 16.3377 7.24175 17.3364 7.10497 18.6768 7.64787 19.8085 8.19857 20.9458 9.33088 21.6874 10.5935 21.7377L11.6875 21.749 23.8251 21.749C25.3179 21.7661 26.5418 20.5699 26.5589 19.0772 26.576 17.5844 25.3798 16.3604 23.887 16.3434 23.8664 16.3431 23.8458 16.3431 23.8251 16.3434Z" fill="#FFFFFF" transform="matrix(1 0 0 1.02941 762 621)"/></g></g></g></g></svg>