<svg viewBox="0 0 96 96" xmlns="http://www.w3.org/2000/svg" xmlns:xlink="http://www.w3.org/1999/xlink" id="Icons_IceHockey" overflow="hidden"><g><circle cx="65" cy="16.2" r="8"/><path d="M84.7 64.4C83.9 63.6 82.7 63.6 81.9 64.4L76.3 70C74.7 71.6 72.2 71.6 70.6 70L67 66.4 67 31.2C67 30 66.3 28.9 65.2 28.4L53.2 23.4C52.8 23.2 52.4 23.2 52 23.2L36 23.2C34.3 23.2 33 24.5 33 26.2L33 32.4 29.4 28.8C28.6 28 27.4 28 26.6 28.8 25.8 29.6 25.8 30.8 26.6 31.6L33 38 33 42.2C33 43.9 34.3 45.2 36 45.2 37.1 45.2 38.1 44.6 38.6 43.6L39.5 44.5 33.4 59 16.4 67.8C15 68.5 14.3 69.9 14.3 71.4L12.6 68.3C12.3 67.8 11.7 67.6 11.2 67.9 10.7 68.2 10.5 68.8 10.8 69.3L16.9 80.8C17.1 81.1 17.4 81.3 17.7 81.3L20.7 81.5C20.7 81.5 20.7 81.5 20.8 81.5 21.3 81.5 21.8 81.1 21.8 80.6 21.8 80 21.4 79.6 20.9 79.5L18.5 79.3 16 74.7C16.7 75.1 17.4 75.4 18.2 75.4 18.8 75.4 19.4 75.3 20 75L38.3 65.5C39.1 65.1 39.8 64.4 40.2 63.5L45.6 50.7 48.7 53.8 37.3 81.3C36.6 82.9 37.1 84.6 38.3 85.7L35 85.7C35 85.7 35 85.7 35 85.7 34.4 85.7 34 86.1 34 86.7 34 87.3 34.4 87.7 35 87.7L48 87.7C48 87.7 48 87.7 48 87.7 48.3 87.7 48.7 87.5 48.8 87.2L50.4 84.7C50.7 84.2 50.5 83.6 50.1 83.3 49.6 83 49 83.2 48.7 83.6L47.4 85.7 43.6 85.7C44 85.3 44.3 84.9 44.6 84.3L54.7 59.8 61 66 61 69.2C61 70.9 62.3 72.2 64 72.2 64.9 72.2 65.7 71.8 66.2 71.2L67.8 72.8C69.4 74.4 71.4 75.1 73.5 75.1 75.5 75.1 77.6 74.3 79.2 72.8L84.8 67.2C85.5 66.5 85.5 65.2 84.7 64.4ZM39 38.4 39 29.2 45.9 29.2 41.2 40.5 39 38.4ZM56.4 55.9 61 45 61 60.4 56.4 55.9Z"/></g></svg>