<svg width="24" height="24" xmlns="http://www.w3.org/2000/svg" xmlns:xlink="http://www.w3.org/1999/xlink" overflow="hidden"><defs><clipPath id="clip0"><rect x="1014" y="582" width="24" height="24"/></clipPath><clipPath id="clip1"><rect x="1015" y="582" width="22" height="23"/></clipPath><clipPath id="clip2"><rect x="1015" y="582" width="22" height="23"/></clipPath><clipPath id="clip3"><rect x="1015" y="582" width="22" height="23"/></clipPath></defs><g clip-path="url(#clip0)" transform="translate(-1014 -582)"><g clip-path="url(#clip1)"><g clip-path="url(#clip2)"><g clip-path="url(#clip3)"><path d="M6.96208 16.1838 1.77833 11 6.8475 5.93083 7.81917 6.9025 3.72167 11 7.93375 15.2121 6.96208 16.1838Z" transform="matrix(1 0 0 1.04545 1015 582)"/><path d="M14.9233 16.1838 13.9517 15.2121 18.1638 11 14.0663 6.9025 15.0379 5.93083 20.1071 11 14.9233 16.1838Z" transform="matrix(1 0 0 1.04545 1015 582)"/><path d="M12.1458 11C12.1458 11.6328 11.6328 12.1458 11 12.1458 10.3672 12.1458 9.85417 11.6328 9.85417 11 9.85417 10.3672 10.3672 9.85417 11 9.85417 11.6328 9.85417 12.1458 10.3672 12.1458 11Z" transform="matrix(1 0 0 1.04545 1015 582)"/><path d="M8.47917 11C8.47917 11.6328 7.96616 12.1458 7.33333 12.1458 6.70051 12.1458 6.1875 11.6328 6.1875 11 6.1875 10.3672 6.70051 9.85417 7.33333 9.85417 7.96616 9.85417 8.47917 10.3672 8.47917 11Z" transform="matrix(1 0 0 1.04545 1015 582)"/><path d="M15.8125 11C15.8125 11.6328 15.2995 12.1458 14.6667 12.1458 14.0338 12.1458 13.5208 11.6328 13.5208 11 13.5208 10.3672 14.0338 9.85417 14.6667 9.85417 15.2995 9.85417 15.8125 10.3672 15.8125 11Z" transform="matrix(1 0 0 1.04545 1015 582)"/></g></g></g></g></svg>