<svg width="26" height="26" xmlns="http://www.w3.org/2000/svg" xmlns:xlink="http://www.w3.org/1999/xlink" overflow="hidden"><defs><clipPath id="clip0"><rect x="593" y="299" width="26" height="26"/></clipPath><clipPath id="clip1"><rect x="593" y="300" width="25" height="25"/></clipPath><clipPath id="clip2"><rect x="593" y="300" width="25" height="25"/></clipPath><clipPath id="clip3"><rect x="593" y="300" width="25" height="25"/></clipPath></defs><g clip-path="url(#clip0)" transform="translate(-593 -299)"><g clip-path="url(#clip1)"><g clip-path="url(#clip2)"><g clip-path="url(#clip3)"><path d="M615.396 314.349C616.151 313.255 616.099 311.771 615.266 310.729 615.37 310.417 615.422 310.104 615.422 309.792 615.422 308.307 614.354 307.057 612.922 306.771 612.479 305.495 611.307 304.661 609.953 304.661 609.719 304.661 609.458 304.688 609.224 304.74 608.677 304.089 607.87 303.698 607.036 303.62 606.177 303.568 605.344 303.854 604.719 304.427 603.911 303.88 602.896 303.724 601.984 304.01 601.047 304.297 600.318 305 599.979 305.938 599.927 305.938 599.849 305.938 599.797 305.938 598.078 305.938 596.698 307.292 596.672 309.01 596.672 309.063 596.672 309.115 596.672 309.167 595.63 309.74 595.031 310.859 595.109 312.057 595.214 313.698 596.672 314.922 598.339 314.922L602.375 314.922C604.094 314.922 605.5 316.302 605.526 318.021L605.526 321.354 607.583 321.354 607.583 319.01C607.583 318.906 607.583 318.776 607.583 318.672 607.583 317.708 607.557 316.484 608.234 315.703 608.651 315.26 609.12 314.87 609.615 314.531 610.005 314.297 610.344 314.01 610.63 313.672 610.76 313.464 610.891 313.255 610.969 313.047 610.422 312.839 609.849 312.76 609.276 312.839 608.99 312.865 608.729 312.682 608.677 312.396 608.651 312.109 608.833 311.849 609.12 311.797 609.823 311.693 610.526 311.771 611.203 312.031 611.203 311.953 611.203 311.901 611.229 311.823 611.255 311.406 611.203 310.99 611.073 310.599 610.708 309.661 609.797 309.245 608.938 308.906 608.781 308.854 608.625 308.802 608.417 308.75L608.26 308.698 608.234 308.698C608.026 308.724 607.844 308.776 607.635 308.854L607.401 308.906 607.141 308.958C606.698 309.479 606.464 310.156 606.516 310.859 606.568 311.563 606.906 312.188 607.427 312.63 607.635 312.813 607.635 313.125 607.479 313.359 607.323 313.542 607.01 313.568 606.802 313.411 606.49 313.151 606.229 312.813 606.021 312.448L605.969 312.448C605.24 312.318 604.406 312.188 603.729 311.745 603.495 311.589 603.443 311.276 603.599 311.042 603.755 310.807 604.068 310.729 604.302 310.885 604.693 311.12 605.135 311.276 605.604 311.328 605.552 311.198 605.526 311.068 605.5 310.911 605.448 310.339 605.552 309.74 605.786 309.219 605.422 309.271 605.083 309.297 604.719 309.297 604.406 309.297 604.094 309.271 603.781 309.219 603.208 309.922 602.401 310.443 601.516 310.651 600.344 311.25 599.25 312.005 599.25 313.281 599.25 313.568 599.016 313.802 598.729 313.802 598.443 313.802 598.208 313.568 598.208 313.281 598.234 312.292 598.677 311.38 599.432 310.755 598.807 310.677 598.234 310.417 597.818 309.948 597.635 309.714 597.688 309.401 597.896 309.219 598.104 309.036 598.443 309.063 598.625 309.271 598.833 309.531 599.432 309.766 600.292 309.74 601.151 309.74 602.01 309.427 602.661 308.854 601.906 308.542 601.281 307.969 600.891 307.24 600.734 306.979 600.839 306.667 601.073 306.536 601.333 306.38 601.646 306.484 601.776 306.719 602.557 308.125 604.198 308.516 606.776 307.917 606.307 307.526 605.969 306.901 605.995 305.911 605.995 305.625 606.255 305.391 606.542 305.417 606.828 305.417 607.063 305.677 607.036 305.964 606.984 307.135 607.635 307.37 608.677 307.682 608.833 307.734 608.99 307.76 609.146 307.813 609.432 307.161 610.005 306.667 610.708 306.484 610.995 306.406 611.281 306.589 611.359 306.875 611.438 307.161 611.255 307.448 610.969 307.526 610.604 307.63 610.318 307.865 610.135 308.203 610.135 308.229 610.135 308.229 610.135 308.255 610.943 308.646 611.646 309.219 612.01 310.182 612.089 310.391 612.141 310.599 612.167 310.807 612.271 310.729 612.349 310.625 612.401 310.495 612.583 310.104 612.714 309.714 612.766 309.271 612.792 309.089 612.922 308.932 613.104 308.854 613.286 308.776 613.495 308.828 613.625 308.958 613.781 309.089 613.833 309.271 613.781 309.479 613.703 310 613.547 310.521 613.286 310.99 613.026 311.432 612.635 311.797 612.167 312.057 612.115 312.708 611.906 313.359 611.594 313.932 611.932 314.323 612.297 314.661 612.74 314.922 612.896 315.026 613 315.208 613 315.391 613 315.573 612.896 315.755 612.714 315.833 612.531 315.911 612.349 315.911 612.193 315.807 611.75 315.521 611.333 315.156 610.969 314.766 610.708 314.974 610.422 315.182 610.161 315.365 609.719 315.651 609.328 315.964 608.99 316.354 608.573 316.849 608.599 317.813 608.599 318.646 608.599 318.776 608.599 318.88 608.599 319.01L608.599 321.354 610.682 321.354C610.682 317.969 612.297 317.786 612.505 317.734 613.182 317.552 614.979 316.615 615.37 314.688 615.422 314.583 615.396 314.453 615.396 314.349 615.37 314.349 615.37 314.349 615.396 314.349Z"/></g></g></g></g></svg>