<svg width="43" height="43" xmlns="http://www.w3.org/2000/svg" xmlns:xlink="http://www.w3.org/1999/xlink" overflow="hidden"><defs><clipPath id="clip0"><rect x="516" y="164" width="43" height="43"/></clipPath><clipPath id="clip1"><rect x="517" y="165" width="42" height="42"/></clipPath><clipPath id="clip2"><rect x="517" y="165" width="42" height="42"/></clipPath><clipPath id="clip3"><rect x="517" y="165" width="42" height="42"/></clipPath></defs><g clip-path="url(#clip0)" transform="translate(-516 -164)"><g clip-path="url(#clip1)"><g clip-path="url(#clip2)"><g clip-path="url(#clip3)"><path d="M523.125 198.25 552.875 198.25 552.875 200.875 523.125 200.875Z" fill="#FFFFFF"/><path d="M523.125 171.125 526.625 171.125 526.625 196.5 523.125 196.5Z" fill="#FFFFFF"/><path d="M545 193 552.875 193 552.875 196.5 545 196.5Z" fill="#FFFFFF"/><path d="M545 178.125 552.875 178.125 552.875 191.25 545 191.25Z" fill="#FFFFFF"/><path d="M545 172.875 552.875 172.875 552.875 176.375 545 176.375Z" fill="#FFFFFF"/><path d="M539.75 180.75C539.269 180.75 538.875 180.356 538.875 179.875 538.875 179.394 539.269 179 539.75 179 540.231 179 540.625 179.394 540.625 179.875 540.625 180.356 540.231 180.75 539.75 180.75ZM539.75 194.75C539.269 194.75 538.875 194.356 538.875 193.875 538.875 193.394 539.269 193 539.75 193 540.231 193 540.625 193.394 540.625 193.875 540.625 194.356 540.231 194.75 539.75 194.75ZM543.25 177.25 536.25 177.25 536.25 196.5 543.25 196.5 543.25 177.25Z" fill="#FFFFFF"/><path d="M532.75 178.125 530.125 178.125 530.125 175.5 532.75 175.5 532.75 178.125ZM534.5 173.75 528.375 173.75 528.375 196.5 534.5 196.5 534.5 173.75Z" fill="#FFFFFF"/></g></g></g></g></svg>