<svg width="18" height="18" xmlns="http://www.w3.org/2000/svg" xmlns:xlink="http://www.w3.org/1999/xlink" overflow="hidden"><defs><clipPath id="clip0"><rect x="264" y="114" width="18" height="18"/></clipPath><clipPath id="clip1"><rect x="264" y="114" width="17" height="17"/></clipPath><clipPath id="clip2"><rect x="264" y="114" width="17" height="17"/></clipPath><clipPath id="clip3"><rect x="264" y="114" width="17" height="17"/></clipPath></defs><g clip-path="url(#clip0)" transform="translate(-264 -114)"><g clip-path="url(#clip1)"><g clip-path="url(#clip2)"><g clip-path="url(#clip3)"><path d="M273.917 122.943C273.917 123.332 273.598 123.651 273.208 123.651L272.5 123.651C272.11 123.651 271.792 123.332 271.792 122.943L271.792 122.589 265.771 122.589 265.771 127.547C265.771 127.936 266.09 128.255 266.479 128.255L279.229 128.255C279.619 128.255 279.938 127.936 279.938 127.547L279.938 122.589 273.917 122.589 273.917 122.943Z" fill="#FFFFFF"/><path d="M279.229 118.339 275.688 118.339 275.688 117.188C275.688 116.497 275.139 115.948 274.448 115.948L271.26 115.948C270.57 115.948 270.021 116.497 270.021 117.188L270.021 118.339 266.479 118.339C266.09 118.339 265.771 118.657 265.771 119.047L265.771 121.88 271.792 121.88 271.792 121.526 273.917 121.526 273.917 121.88 279.938 121.88 279.938 119.047C279.938 118.657 279.619 118.339 279.229 118.339M271.083 118.339 271.083 117.188C271.083 117.081 271.154 117.01 271.26 117.01L274.448 117.01C274.554 117.01 274.625 117.081 274.625 117.188L274.625 118.339 271.083 118.339Z" fill="#FFFFFF"/></g></g></g></g></svg>