<svg width="27" height="26" xmlns="http://www.w3.org/2000/svg" xmlns:xlink="http://www.w3.org/1999/xlink" overflow="hidden"><defs><clipPath id="clip0"><rect x="539" y="343" width="27" height="26"/></clipPath><clipPath id="clip1"><rect x="540" y="344" width="25" height="25"/></clipPath><clipPath id="clip2"><rect x="540" y="344" width="25" height="25"/></clipPath><clipPath id="clip3"><rect x="540" y="344" width="25" height="25"/></clipPath></defs><g clip-path="url(#clip0)" transform="translate(-539 -343)"><g clip-path="url(#clip1)"><g clip-path="url(#clip2)"><g clip-path="url(#clip3)"><path d="M546.484 360.38 545.755 359.651 547.995 357.411 545.755 355.172 546.484 354.443 549.453 357.411Z"/><path d="M542.083 348.427 542.083 364.573 562.917 364.573 562.917 348.427 542.083 348.427ZM560.052 349.99C560.339 349.99 560.573 350.224 560.573 350.51 560.573 350.797 560.339 351.031 560.052 351.031 559.766 351.031 559.531 350.797 559.531 350.51 559.531 350.224 559.766 349.99 560.052 349.99ZM558.229 349.99C558.516 349.99 558.75 350.224 558.75 350.51 558.75 350.797 558.516 351.031 558.229 351.031 557.943 351.031 557.708 350.797 557.708 350.51 557.708 350.224 557.943 349.99 558.229 349.99ZM556.406 349.99C556.693 349.99 556.927 350.224 556.927 350.51 556.927 350.797 556.693 351.031 556.406 351.031 556.12 351.031 555.885 350.797 555.885 350.51 555.885 350.224 556.12 349.99 556.406 349.99ZM561.354 363.01 543.646 363.01 543.646 352.594 561.354 352.594 561.354 363.01Z"/><path d="M549.896 359.365 554.063 359.365 554.063 360.406 549.896 360.406Z"/></g></g></g></g></svg>