<svg width="512" height="512" viewBox="0 0 64 64" xmlns="http://www.w3.org/2000/svg" xmlns:xlink="http://www.w3.org/1999/xlink" id="icons" overflow="hidden"><path d="M6.002 33.006 6.002 36.008 4.003 36.008C3.45 36.008 3.003 36.455 3.003 37.008L3.003 62.998C3.003 63.551 3.45 63.998 4.003 63.998L59.997 63.998C60.55 63.998 60.997 63.551 60.997 62.998L60.997 37.008C60.997 36.455 60.55 36.008 59.997 36.008L57.998 36.008 57.998 33.006C57.998 32.453 57.551 32.006 56.998 32.006L36 32.006C34.358 32.006 32.912 32.812 32 34.038 31.088 32.811 29.642 32.006 28 32.006L7.002 32.006C6.449 32.006 6.002 32.453 6.002 33.006ZM5.003 38.008 6.002 38.008 6.002 58.998C6.002 59.551 6.449 59.998 7.002 59.998L28 59.998C29.302 59.998 30.401 60.837 30.815 61.998L5.003 61.998ZM58.997 38.008 58.997 61.998 33.185 61.998C33.599 60.837 34.699 59.998 36 59.998L56.998 59.998C57.551 59.998 57.998 59.551 57.998 58.998L57.998 38.008ZM36 34.006 55.998 34.006 55.998 57.998 36 57.998C34.87 57.998 33.838 58.389 33 59.023L33 37.008C33 35.353 34.346 34.006 36 34.006ZM31 37.008 31 59.024C30.162 58.389 29.13 57.999 28 57.999L8.002 57.999 8.002 34.006 28 34.006C29.654 34.006 31 35.353 31 37.008Z" fill="#FFFFFF"/><path d="M12.002 39.006 21 39.006C21.553 39.006 22 38.559 22 38.006 22 37.453 21.553 37.006 21 37.006L12.002 37.006C11.449 37.006 11.002 37.453 11.002 38.006 11.002 38.559 11.449 39.006 12.002 39.006Z" fill="#FFFFFF"/><path d="M12.002 47.01 19.002 47.01C19.555 47.01 20.002 46.563 20.002 46.01 20.002 45.457 19.555 45.01 19.002 45.01L12.002 45.01C11.449 45.01 11.002 45.457 11.002 46.01 11.002 46.563 11.449 47.01 12.002 47.01Z" fill="#FFFFFF"/><path d="M27 45.01 23.002 45.01C22.449 45.01 22.002 45.457 22.002 46.01 22.002 46.563 22.449 47.01 23.002 47.01L27 47.01C27.553 47.01 28 46.563 28 46.01 28 45.457 27.553 45.01 27 45.01Z" fill="#FFFFFF"/><path d="M27 41.008 16.002 41.008C15.449 41.008 15.002 41.455 15.002 42.008 15.002 42.561 15.449 43.008 16.002 43.008L27 43.008C27.553 43.008 28 42.561 28 42.008 28 41.455 27.553 41.008 27 41.008Z" fill="#FFFFFF"/><path d="M12.002 43.008 13.002 43.008C13.555 43.008 14.002 42.561 14.002 42.008 14.002 41.455 13.555 41.008 13.002 41.008L12.002 41.008C11.449 41.008 11.002 41.455 11.002 42.008 11.002 42.561 11.449 43.008 12.002 43.008Z" fill="#FFFFFF"/><path d="M27 37.006 25 37.006C24.447 37.006 24 37.453 24 38.006 24 38.559 24.447 39.006 25 39.006L27 39.006C27.553 39.006 28 38.559 28 38.006 28 37.453 27.553 37.006 27 37.006Z" fill="#FFFFFF"/><path d="M12.002 51.012 22 51.012C22.553 51.012 23 50.565 23 50.012 23 49.459 22.553 49.012 22 49.012L12.002 49.012C11.449 49.012 11.002 49.459 11.002 50.012 11.002 50.565 11.449 51.012 12.002 51.012Z" fill="#FFFFFF"/><path d="M27 49.012 26 49.012C25.447 49.012 25 49.459 25 50.012 25 50.565 25.447 51.012 26 51.012L27 51.012C27.553 51.012 28 50.565 28 50.012 28 49.459 27.553 49.012 27 49.012Z" fill="#FFFFFF"/><path d="M16.002 53.014 12.002 53.014C11.449 53.014 11.002 53.461 11.002 54.014 11.002 54.567 11.449 55.014 12.002 55.014L16.002 55.014C16.555 55.014 17.002 54.567 17.002 54.014 17.002 53.461 16.555 53.014 16.002 53.014Z" fill="#FFFFFF"/><path d="M27 53.014 20.002 53.014C19.449 53.014 19.002 53.461 19.002 54.014 19.002 54.567 19.449 55.014 20.002 55.014L27 55.014C27.553 55.014 28 54.567 28 54.014 28 53.461 27.553 53.014 27 53.014Z" fill="#FFFFFF"/><path d="M43.017 38.998 52.015 38.998C52.568 38.998 53.015 38.551 53.015 37.998 53.015 37.445 52.568 36.998 52.015 36.998L43.017 36.998C42.464 36.998 42.017 37.445 42.017 37.998 42.017 38.551 42.464 38.998 43.017 38.998Z" fill="#FFFFFF"/><path d="M52.015 45.002 45.015 45.002C44.462 45.002 44.015 45.449 44.015 46.002 44.015 46.555 44.462 47.002 45.015 47.002L52.015 47.002C52.568 47.002 53.015 46.555 53.015 46.002 53.015 45.449 52.567 45.002 52.015 45.002Z" fill="#FFFFFF"/><path d="M37.017 47.002 41.015 47.002C41.568 47.002 42.015 46.555 42.015 46.002 42.015 45.449 41.568 45.002 41.015 45.002L37.017 45.002C36.464 45.002 36.017 45.449 36.017 46.002 36.017 46.555 36.464 47.002 37.017 47.002Z" fill="#FFFFFF"/><path d="M37.017 43 48.015 43C48.568 43 49.015 42.553 49.015 42 49.015 41.447 48.568 41 48.015 41L37.017 41C36.464 41 36.017 41.447 36.017 42 36.017 42.553 36.464 43 37.017 43Z" fill="#FFFFFF"/><path d="M52.015 41 51.015 41C50.462 41 50.015 41.447 50.015 42 50.015 42.553 50.462 43 51.015 43L52.015 43C52.568 43 53.015 42.553 53.015 42 53.015 41.447 52.567 41 52.015 41Z" fill="#FFFFFF"/><path d="M37.017 38.998 39.017 38.998C39.57 38.998 40.017 38.551 40.017 37.998 40.017 37.445 39.57 36.998 39.017 36.998L37.017 36.998C36.464 36.998 36.017 37.445 36.017 37.998 36.017 38.551 36.464 38.998 37.017 38.998Z" fill="#FFFFFF"/><path d="M52.015 49.004 42.017 49.004C41.464 49.004 41.017 49.451 41.017 50.004 41.017 50.557 41.464 51.004 42.017 51.004L52.015 51.004C52.568 51.004 53.015 50.557 53.015 50.004 53.015 49.451 52.567 49.004 52.015 49.004Z" fill="#FFFFFF"/><path d="M37.017 51.004 38.017 51.004C38.57 51.004 39.017 50.557 39.017 50.004 39.017 49.451 38.57 49.004 38.017 49.004L37.017 49.004C36.464 49.004 36.017 49.451 36.017 50.004 36.017 50.557 36.464 51.004 37.017 51.004Z" fill="#FFFFFF"/><path d="M52.015 53.006 48.015 53.006C47.462 53.006 47.015 53.453 47.015 54.006 47.015 54.559 47.462 55.006 48.015 55.006L52.015 55.006C52.568 55.006 53.015 54.559 53.015 54.006 53.015 53.453 52.567 53.006 52.015 53.006Z" fill="#FFFFFF"/><path d="M37.017 55.006 44.015 55.006C44.568 55.006 45.015 54.559 45.015 54.006 45.015 53.453 44.568 53.006 44.015 53.006L37.017 53.006C36.464 53.006 36.017 53.453 36.017 54.006 36.017 54.559 36.464 55.006 37.017 55.006Z" fill="#FFFFFF"/><path d="M31.293 31.707C31.488 31.902 31.744 32 32 32 32.256 32 32.512 31.902 32.707 31.707L34.667 29.747C41.833 28.463 47 22.313 47 15.002 47 6.731 40.271 0.002 32 0.002 23.729 0.002 17 6.731 17 15.002 17 22.314 22.167 28.463 29.333 29.747ZM19 15.002C19 7.834 24.832 2.002 32 2.002 39.168 2.002 45 7.834 45 15.002 45 21.433 40.387 26.826 34.03 27.826 33.821 27.859 33.628 27.958 33.478 28.107L32 29.586 30.521 28.107C30.372 27.958 30.178 27.859 29.969 27.826 23.613 26.826 19 21.433 19 15.002Z" fill="#FFFFFF"/><path d="M27.695 11.289C27.304 10.898 26.672 10.898 26.281 11.289L23.281 14.289C22.89 14.68 22.89 15.312 23.281 15.703L26.281 18.703C26.476 18.898 26.732 18.996 26.988 18.996 27.244 18.996 27.5 18.898 27.695 18.703 28.086 18.312 28.086 17.68 27.695 17.289L25.402 14.996 27.695 12.703C28.086 12.313 28.086 11.68 27.695 11.289Z" fill="#FFFFFF"/><path d="M36.288 18.703C36.483 18.898 36.739 18.996 36.995 18.996 37.251 18.996 37.507 18.898 37.702 18.703L40.702 15.703C41.093 15.312 41.093 14.68 40.702 14.289L37.702 11.289C37.311 10.898 36.679 10.898 36.288 11.289 35.897 11.68 35.897 12.312 36.288 12.703L38.581 14.996 36.288 17.289C35.897 17.68 35.897 18.313 36.288 18.703Z" fill="#FFFFFF"/><path d="M30.919 20.369 34.92 10.365C35.125 9.852 34.875 9.27 34.362 9.065 33.852 8.859 33.266 9.108 33.062 9.623L29.061 19.627C28.856 20.14 29.106 20.722 29.619 20.927 29.74 20.976 29.866 20.998 29.99 20.998 30.387 20.998 30.763 20.761 30.919 20.369Z" fill="#FFFFFF"/></svg>