<svg viewBox="0 0 400 300" xmlns="http://www.w3.org/2000/svg" xmlns:xlink="http://www.w3.org/1999/xlink" id="Layer_1" overflow="hidden"><ellipse cx="192.27" cy="250.19" rx="149.01" ry="11.8" fill="#E6E6E6" opacity="0.45"/><line x1="170.31" y1="241.5" x2="170.31" y2="248.04" stroke="#68BCFD" stroke-linecap="round" stroke-linejoin="round" fill="none"/><line x1="181.94" y1="241.2" x2="182.51" y2="247.71" stroke="#68BCFD" stroke-linecap="round" stroke-linejoin="round" fill="none"/><path d="M104.27 66.34C74.8 77.73 53 106.41 48.82 141 45.29 170.16 54.11 202.34 105.32 211.32 204.95 228.8 298.23 233.53 321.85 185.26 345.47 136.99 337.85 54.49 287.28 49.34 247.09 45.27 161.84 44.09 104.27 66.34Z" fill="#E6E6E6" opacity="0.3"/><path d="M176.82 234.89C176.82 234.89 180.28 234.64 186.37 240.12 192.46 245.6 166.64 243.8 166.64 243.8L165.99 234.89Z" fill="#24285B"/><path d="M191 70.13C191 70.13 190.82 76.54 189.27 80.64 188.645 82.2992 186.794 83.1379 185.135 82.5134 185.123 82.509 185.112 82.5045 185.1 82.5 182.419 81.6478 180.49 79.2964 180.18 76.5L178.92 70.72C178.686 68.3372 179.952 66.0586 182.1 65 186 62.77 191.26 66.23 191 70.13Z" fill="#F4A28C"/><path d="M196.11 104.24C214.89 144.81 254.8 161.69 254.8 161.69L250.94 170.78C197.73 155.62 167.68 119.92 167.68 119.92Z" fill="#68BCFD"/><path d="M196.11 104.24C214.89 144.81 254.8 161.69 254.8 161.69L250.94 170.78C197.73 155.62 167.68 119.92 167.68 119.92Z" fill="#FFFFFF" opacity="0.46"/><path d="M182.06 70.83 170.31 88.25 180.38 94.04 184.88 79.04 182.06 70.83Z" fill="#F4A28C"/><path d="M183.56 74.81C183.56 74.81 183.8 72.35 181.93 72.33 180.06 72.31 179.71 75.86 182.18 76.48Z" fill="#F4A28C"/><path d="M190.64 74.17 192.14 76.82C192.433 77.2883 192.291 77.9053 191.822 78.1981 191.668 78.2942 191.491 78.3468 191.31 78.35L188.83 78.53Z" fill="#F4A28C"/><path d="M184.09 82C183.057 80.9191 182.362 79.5602 182.09 78.09 182.09 78.09 180.91 81.68 182.42 87.15Z" fill="#CE8172" opacity="0.31"/><circle cx="180.36" cy="74.81" r="1.63" fill="#F4A28C"/><path d="M177.6 71.36C177.6 71.36 176.4 75.62 180.33 76.44 184.26 77.26 185.33 71.36 185.33 71.36L193.41 71.36C193.41 71.36 195.99 64.56 191.54 61.51 187.09 58.46 176.68 58.81 177.6 71.36Z" fill="#68BCFD"/><path d="M193.41 71.36 196.11 74.81C196.11 74.81 187.8 75.94 185.33 71.36Z" fill="#24285B"/><path d="M170.31 87.24 182.14 94C182.14 94 205.14 102.51 200.63 124 196.12 145.49 145.63 162.67 145.63 162.67L112.63 141.37C121.194 131.66 126.89 119.76 129.08 107 132.66 85.73 137.38 58.7 170.31 87.24Z" fill="#68BCFD"/><path d="M163 94C163 94 172.1 106.18 158.68 114.45 145.26 122.72 133.42 124.74 145.45 141.38 157.48 158.02 145.59 162.68 145.59 162.68L112.59 141.38C112.59 141.38 119.96 133.06 120.5 130.47 121.04 127.88 126.19 92.77 143.28 93.13 160.37 93.49 163 94 163 94Z" opacity="0.08"/><path d="M159.08 81.85C155.24 76.5554 148.684 73.9595 142.26 75.19 133.26 76.9 119.46 81.19 107.99 91.76 89.13 109.19 143.14 151.76 143.14 151.76L151.92 145.47C151.92 145.47 141 131 135.36 119.71 133.074 115.154 134.914 109.607 139.471 107.321 140.208 106.951 140.991 106.682 141.8 106.52 153.5 104.23 170.8 98 159.08 81.85Z" fill="#68BCFD"/><path d="M159.08 81.85C155.24 76.5554 148.684 73.9595 142.26 75.19 133.26 76.9 119.46 81.19 107.99 91.76 89.13 109.19 143.14 151.76 143.14 151.76L151.92 145.47C151.92 145.47 141 131 135.36 119.71 133.074 115.154 134.914 109.607 139.471 107.321 140.208 106.951 140.991 106.682 141.8 106.52 153.5 104.23 170.8 98 159.08 81.85Z" fill="#FFFFFF" opacity="0.46"/><path d="M112.54 141.42C112.54 141.42 97.28 156.42 109.05 168.16 117.43 176.55 138.69 184 150.22 187.59 154.984 189.074 158.524 193.088 159.4 198L166 234.89 178.63 234.89 176.51 190.54C176.139 182.844 171.664 175.94 164.79 172.46L145.54 162.72Z" fill="#24285B"/><path d="M164.92 188.16 182.12 185.07 185.89 234.89 170.31 234.89 164.92 188.16Z" fill="#68BCFD"/><path d="M111.85 159.32 111.85 177.5C111.849 187.427 105.351 196.183 95.85 199.06L70.6 206.76 73.36 218.16 104.19 213.22C121.146 210.51 134.426 197.185 137.08 180.22L139.8 162.77Z" fill="#24285B"/><path d="M225.41 140.64C223.161 138.812 219.896 138.967 217.83 141 213.58 145.14 207.83 152 211.24 156 216.39 162.07 250.57 172 250.57 172L254.8 161.67C254.8 161.67 236.55 149.68 225.41 140.64Z" fill="#24285B"/><path d="M128 79.33 139.84 97.58 133.5 101.81 119.6 83.34C121.99 81.2754 124.891 79.8905 128 79.33Z" fill="#24285B"/><path d="M117 128 135.41 119.76 153.94 146.76C153.94 146.76 159.27 153.89 154.54 159.42 149.81 164.95 143.48 159.42 141.68 151.87Z" fill="#24285B"/><path d="M112.54 202.54 114.56 214.12 73.66 220.16 71.5 210.35 112.54 202.54Z" fill="#68BCFD"/><path d="M71.5 210.35 70.63 206.76 94.87 199.37 97.1 205.47 71.5 210.35Z" fill="#FFFFFF"/><path d="M166.37 200.72 159.89 200.72 166.04 234.89 170.31 234.89 166.37 200.72Z" fill="#FFFFFF"/><path d="M164.92 247.2C172.87 248.772 181.05 248.772 189 247.2" stroke="#68BCFD" stroke-linecap="round" stroke-linejoin="round" fill="none"/><line x1="65.06" y1="212.5" x2="58.66" y2="213.81" stroke="#68BCFD" stroke-linecap="round" stroke-linejoin="round" fill="none"/><line x1="67.7" y1="223.82" x2="61.43" y2="225.69" stroke="#68BCFD" stroke-linecap="round" stroke-linejoin="round" fill="none"/><path d="M72.85 217.55C72.85 217.55 73.78 220.88 69.64 227.95 65.5 235.02 62.07 209.36 62.07 209.36L70.67 206.94Z" fill="#24285B"/><path d="M58.39 208.36C58.4395 216.481 60.084 224.513 63.23 232" stroke="#68BCFD" stroke-linecap="round" stroke-linejoin="round" fill="none"/><path d="M250.57 172C250.57 172 259.46 177.18 263.85 167 268.24 156.82 254.8 161.71 254.8 161.71Z" fill="#24285B"/><path d="M334.08 145.45 324.41 163C323.237 165.121 320.949 166.378 318.53 166.23L149.45 155.53 149.19 159.45 323.24 170.5C325.982 170.674 328.579 169.253 329.91 166.85L340 148.73C340.846 147.215 340.415 145.305 339 144.3L339 144.3C337.467 143.226 335.353 143.597 334.278 145.131 334.206 145.233 334.14 145.34 334.08 145.45Z" fill="#FFD200"/><path d="M326.55 159.15 332.22 162.72 337.66 152.97 332.1 149.04 326.55 159.15Z" opacity="0.08"/><ellipse cx="188.18" cy="120.43" rx="5.36" ry="4.09" fill="#FFFFFF" opacity="0.46" transform="matrix(0.464533 -0.885556 0.885556 0.464533 -5.88 231.14)"/></svg>