<svg width="26" height="26" xmlns="http://www.w3.org/2000/svg" xmlns:xlink="http://www.w3.org/1999/xlink" overflow="hidden"><defs><clipPath id="clip0"><rect x="646" y="329" width="26" height="26"/></clipPath><clipPath id="clip1"><rect x="647" y="329" width="24" height="25"/></clipPath><clipPath id="clip2"><rect x="647" y="329" width="24" height="25"/></clipPath><clipPath id="clip3"><rect x="647" y="329" width="24" height="25"/></clipPath></defs><g clip-path="url(#clip0)" transform="translate(-646 -329)"><g clip-path="url(#clip1)"><g clip-path="url(#clip2)"><g clip-path="url(#clip3)"><path d="M19.2925 12.3475C20.5352 12.3475 21.5425 11.3401 21.5425 10.0975 21.5425 8.85485 20.5352 7.8475 19.2925 7.8475 18.0499 7.8475 17.0425 8.85485 17.0425 10.0975 17.0427 10.2106 17.052 10.3234 17.07 10.435L14.4675 11.5225C14.0007 10.6989 13.1848 10.1322 12.25 9.9825L12.25 7.1875C13.4616 6.91135 14.2199 5.70533 13.9438 4.49375 13.6676 3.2822 12.4616 2.52387 11.25 2.80002 10.0384 3.07615 9.28012 4.2822 9.55625 5.49375 9.74842 6.33693 10.4068 6.99533 11.25 7.1875L11.25 9.98C10.324 10.1298 9.51437 10.6878 9.045 11.5L6.5125 10.4425C6.70235 9.21445 5.86072 8.065 4.63268 7.87515 3.40462 7.6853 2.25519 8.52693 2.06533 9.75498 1.87548 10.983 2.7171 12.1325 3.94515 12.3223 4.7942 12.4536 5.64388 12.0899 6.135 11.385L8.69 12.43C8.50883 13.3051 8.71282 14.2158 9.25 14.93L7.1825 17.0175C6.12498 16.365 4.7387 16.6933 4.08615 17.7507 3.4336 18.8083 3.7619 20.1945 4.81943 20.8471 5.87692 21.4996 7.2632 21.1714 7.91575 20.1138 8.37183 19.3748 8.3618 18.4391 7.89 17.71L9.9725 15.6275C11.042 16.3705 12.4606 16.3705 13.53 15.6275L15.6125 17.7075C14.9368 18.7504 15.2345 20.1436 16.2774 20.8192 17.3203 21.4949 18.7135 21.1972 19.3892 20.1543 20.0648 19.1115 19.7671 17.7183 18.7242 17.0426 17.9898 16.5668 17.0462 16.5599 16.305 17.025L14.25 14.9425C14.6624 14.4026 14.8856 13.7419 14.885 13.0625 14.8841 12.8586 14.864 12.6552 14.825 12.455L17.4525 11.38C17.8711 11.9835 18.558 12.3447 19.2925 12.3475ZM19.2925 8.72C19.6418 8.72 19.925 9.00317 19.925 9.3525 19.925 9.70183 19.6418 9.985 19.2925 9.985 18.9432 9.985 18.66 9.70183 18.66 9.3525 18.66 9.35168 18.66 9.35083 18.66 9.35 18.6627 9.00222 18.9447 8.72135 19.2925 8.72ZM18.0425 10.77C18.045 10.6717 18.0919 10.5798 18.17 10.52 18.3569 10.3866 18.5648 10.2852 18.785 10.22 18.9541 10.1709 19.129 10.1448 19.305 10.1425 19.4812 10.1427 19.6564 10.1688 19.825 10.22 20.0476 10.2789 20.2566 10.3808 20.44 10.52 20.5166 10.5807 20.5624 10.6723 20.565 10.77L20.565 11.25 18.03 11.25ZM4.305 8.72C4.65433 8.72 4.9375 9.00317 4.9375 9.3525 4.9375 9.70183 4.6543 9.985 4.305 9.985 3.95567 9.985 3.6725 9.70183 3.6725 9.3525 3.6725 9.35168 3.6725 9.35083 3.6725 9.35 3.6751 9.00702 3.9496 8.7281 4.2925 8.72ZM5.555 11.2525 3.03 11.2525 3.03 10.77C3.03247 10.6717 3.07935 10.5798 3.1575 10.52 3.34445 10.3866 3.55227 10.2852 3.7725 10.22 3.94155 10.1709 4.11648 10.1448 4.2925 10.1425 4.4687 10.1427 4.6439 10.1688 4.8125 10.22 5.03512 10.2789 5.24407 10.3808 5.4275 10.52 5.50415 10.5807 5.54992 10.6723 5.5525 10.77ZM6 17.555C6.34795 17.555 6.63 17.837 6.63 18.185 6.63 18.5329 6.34795 18.815 6 18.815 5.65205 18.815 5.37 18.5329 5.37 18.185 5.37 17.837 5.65205 17.555 6 17.555ZM7.25 20.085 4.75 20.085 4.75 19.6025C4.75222 19.5047 4.79808 19.413 4.875 19.3525 5.06178 19.2194 5.2697 19.1188 5.49 19.055 5.65565 19.0053 5.82713 18.9776 6 18.9725 6.17632 18.9733 6.35157 19.0003 6.52 19.0525 6.74255 19.1103 6.95153 19.2114 7.135 19.35 7.21193 19.4105 7.25777 19.5022 7.26 19.6ZM11.75 3.6175C12.0979 3.6175 12.38 3.89957 12.38 4.2475 12.38 4.59545 12.0979 4.8775 11.75 4.8775 11.403 4.8775 11.1214 4.59695 11.12 4.25 11.1186 3.90208 11.3996 3.61888 11.7475 3.6175 11.7483 3.6175 11.7492 3.6175 11.75 3.6175ZM10.5 6.1475 10.5 5.665C10.5022 5.56717 10.5481 5.47547 10.625 5.415 10.8118 5.28188 11.0197 5.1813 11.24 5.1175 11.4057 5.0678 11.5771 5.04005 11.75 5.035 11.9263 5.03582 12.1016 5.0628 12.27 5.115 12.4925 5.1728 12.7015 5.2739 12.885 5.4125 12.9619 5.47297 13.0078 5.56467 13.01 5.6625L13.01 6.145ZM11.75 11.1475C12.2346 11.1461 12.6286 11.5379 12.63 12.0225 12.6314 12.5071 12.2396 12.9011 11.755 12.9025 11.2704 12.9039 10.8764 12.5121 10.875 12.0275 10.875 12.0267 10.875 12.0258 10.875 12.025 10.875 11.5414 11.2663 11.1489 11.75 11.1475ZM13.5 14.665 10 14.665 10 14C10.0033 13.8631 10.0675 13.7348 10.175 13.65 10.4345 13.4636 10.7235 13.3225 11.03 13.2325 11.264 13.1636 11.5061 13.1257 11.75 13.12 11.9948 13.1207 12.2381 13.1569 12.4725 13.2275 12.7826 13.308 13.0733 13.45 13.3275 13.645 13.4354 13.7314 13.4988 13.8617 13.5 14ZM17.5 17.555C17.8479 17.555 18.13 17.837 18.13 18.185 18.13 18.5329 17.8479 18.815 17.5 18.815 17.1521 18.815 16.87 18.5329 16.87 18.185 16.87 17.837 17.1521 17.555 17.5 17.555ZM16.25 19.6025C16.2522 19.5047 16.2981 19.413 16.375 19.3525 16.5618 19.2194 16.7697 19.1188 16.99 19.055 17.1556 19.0053 17.3271 18.9776 17.5 18.9725 17.6763 18.9733 17.8516 19.0003 18.02 19.0525 18.2425 19.1103 18.4515 19.2114 18.635 19.35 18.7119 19.4105 18.7578 19.5022 18.76 19.6L18.76 20.0825 16.25 20.0825Z" transform="matrix(1 0 0 1.04167 647 329)"/></g></g></g></g></svg>