<svg viewBox="0 0 511 511" xmlns="http://www.w3.org/2000/svg" xmlns:xlink="http://www.w3.org/1999/xlink" id="Capa_1" overflow="hidden"><g><path d="M39.5 103C41.47 103 43.41 102.2 44.8 100.8 46.2 99.41 47 97.47 47 95.5 47 93.53 46.2 91.59 44.8 90.2 43.41 88.8 41.48 88 39.5 88 37.52 88 35.59 88.8 34.2 90.2 32.8 91.59 32 93.53 32 95.5 32 97.47 32.8 99.41 34.2 100.8 35.59 102.2 37.53 103 39.5 103Z" fill="#FFFFFF"/><path d="M63.5 103C65.48 103 67.41 102.2 68.8 100.8 70.2 99.41 71 97.47 71 95.5 71 93.53 70.2 91.59 68.8 90.2 67.41 88.8 65.47 88 63.5 88 61.53 88 59.59 88.8 58.2 90.2 56.8 91.59 56 93.53 56 95.5 56 97.47 56.8 99.41 58.2 100.8 59.59 102.2 61.53 103 63.5 103Z" fill="#FFFFFF"/><path d="M87.5 103C89.47 103 91.41 102.2 92.8 100.8 94.2 99.41 95 97.47 95 95.5 95 93.53 94.2 91.59 92.8 90.2 91.41 88.8 89.47 88 87.5 88 85.53 88 83.59 88.8 82.2 90.2 80.8 91.59 80 93.53 80 95.5 80 97.47 80.8 99.41 82.2 100.8 83.59 102.2 85.53 103 87.5 103Z" fill="#FFFFFF"/><path d="M119.5 103 423.5 103C427.642 103 431 99.642 431 95.5 431 91.358 427.642 88 423.5 88L119.5 88C115.358 88 112 91.358 112 95.5 112 99.642 115.358 103 119.5 103Z" fill="#FFFFFF"/><path d="M455.5 103 471.5 103C475.642 103 479 99.642 479 95.5 479 91.358 475.642 88 471.5 88L455.5 88C451.358 88 448 91.358 448 95.5 448 99.642 451.358 103 455.5 103Z" fill="#FFFFFF"/><path d="M439.5 168 295.5 168C282.542 168 272 178.542 272 191.5L272 192 263.5 192C250.542 192 240 202.542 240 215.5L240 280 223 280 223 255.5C223 242.542 212.458 232 199.5 232L71.5 232C58.542 232 48 242.542 48 255.5L48 319.5C48 332.458 58.542 343 71.5 343L199.5 343C212.458 343 223 332.458 223 319.5L223 295 240 295 240 359.5C240 372.458 250.542 383 263.5 383L272 383 272 383.5C272 396.458 282.542 407 295.5 407L439.5 407C452.458 407 463 396.458 463 383.5L463 367.5C463 354.542 452.458 344 439.5 344L295.5 344C282.542 344 272 354.542 272 367.5L272 368 263.5 368C258.813 368 255 364.187 255 359.5L255 295 272 295 272 295.5C272 308.458 282.542 319 295.5 319L439.5 319C452.458 319 463 308.458 463 295.5L463 279.5C463 266.542 452.458 256 439.5 256L295.5 256C282.542 256 272 266.542 272 279.5L272 280 255 280 255 215.5C255 210.813 258.813 207 263.5 207L272 207 272 207.5C272 220.458 282.542 231 295.5 231L439.5 231C452.458 231 463 220.458 463 207.5L463 191.5C463 178.542 452.458 168 439.5 168ZM208 319.5C208 324.187 204.187 328 199.5 328L71.5 328C66.813 328 63 324.187 63 319.5L63 255.5C63 250.813 66.813 247 71.5 247L199.5 247C204.187 247 208 250.813 208 255.5L208 319.5ZM287 367.5C287 362.813 290.813 359 295.5 359L439.5 359C444.187 359 448 362.813 448 367.5L448 383.5C448 388.187 444.187 392 439.5 392L295.5 392C290.813 392 287 388.187 287 383.5L287 367.5ZM287 279.5C287 274.813 290.813 271 295.5 271L439.5 271C444.187 271 448 274.813 448 279.5L448 295.5C448 300.187 444.187 304 439.5 304L295.5 304C290.813 304 287 300.187 287 295.5L287 279.5ZM448 207.5C448 212.187 444.187 216 439.5 216L295.5 216C290.813 216 287 212.187 287 207.5L287 191.5C287 186.813 290.813 183 295.5 183L439.5 183C444.187 183 448 186.813 448 191.5L448 207.5Z" fill="#FFFFFF"/><path d="M471.5 56 39.5 56C17.72 56 0 73.72 0 95.5L0 415.5C0 437.28 17.72 455 39.5 455L471.5 455C493.28 455 511 437.28 511 415.5L511 95.5C511 73.72 493.28 56 471.5 56ZM39.5 71 471.5 71C485.009 71 496 81.991 496 95.5L496 120 15 120 15 95.5C15 81.991 25.991 71 39.5 71ZM471.5 440 39.5 440C25.991 440 15 429.009 15 415.5L15 135 496 135 496 415.5C496 429.009 485.009 440 471.5 440Z" fill="#FFFFFF"/></g><g></g><g></g><g></g><g></g><g></g><g></g><g></g><g></g><g></g><g></g><g></g><g></g><g></g><g></g><g></g></svg>