<svg width="512" height="512" viewBox="0 0 64 64" xmlns="http://www.w3.org/2000/svg" xmlns:xlink="http://www.w3.org/1999/xlink" overflow="hidden"><g id="Outline"><path d="M45.62 6.08C45.4976 6.12832 45.3856 6.1996 45.29 6.29 45.2017 6.38726 45.1307 6.49886 45.08 6.62 45.0288 6.74022 45.0016 6.86932 45 7 45.0039 7.26473 45.1074 7.51826 45.29 7.71 45.3856 7.8004 45.4976 7.87168 45.62 7.92 45.7402 7.97124 45.8693 7.99842 46 8 46.5523 8.00321 47.0026 7.55811 47.0058 7.00583 47.0074 6.73717 46.9008 6.47919 46.71 6.29 46.4224 6.00626 45.9924 5.9234 45.62 6.08Z" fill="#FFFFFF"/><path d="M50.71 6.29C50.4224 6.00626 49.9924 5.9234 49.62 6.08 49.4976 6.12832 49.3856 6.1996 49.29 6.29 49.1975 6.38393 49.1259 6.4964 49.08 6.62 49.0288 6.74022 49.0016 6.86932 49 7 48.9906 7.40713 49.2391 7.77588 49.62 7.92 49.7402 7.97124 49.8693 7.99842 50 8 50.2651 7.99803 50.5193 7.8942 50.71 7.71 50.8926 7.51826 50.9961 7.26473 51 7 50.9984 6.86932 50.9712 6.74022 50.92 6.62 50.8717 6.49762 50.8004 6.38561 50.71 6.29Z" fill="#FFFFFF"/><path d="M54.92 6.62C54.8981 6.55626 54.8679 6.49573 54.83 6.44 54.7931 6.38761 54.753 6.33751 54.71 6.29 54.3211 5.89787 53.6879 5.89526 53.2958 6.28417 53.105 6.47336 52.9984 6.73134 53 7 53 7.55228 53.4477 8 54 8 54.5523 8 55 7.55228 55 7 54.9983 6.93624 54.9916 6.87272 54.98 6.81 54.9707 6.74377 54.9505 6.67955 54.92 6.62Z" fill="#FFFFFF"/><path d="M12.947 47C13.6094 48.082 14.6195 48.907 15.812 49.34 16.0161 50.9497 17.1744 52.2755 18.742 52.694 19.0818 52.7851 19.4321 52.8315 19.784 52.832 21.6385 52.8291 23.2456 51.5466 23.66 49.739 23.813 49.714 23.96 49.69 24.118 49.661 25.933 54.763 28.761 58 32 58 35.239 58 38.068 54.762 39.884 49.658 41.2026 49.9113 42.5414 50.0451 43.884 50.058 47.284 50.058 49.866 49.058 51.055 46.997 51.6627 45.8841 51.8742 44.5979 51.655 43.349 53.4131 42.0113 53.7538 39.5016 52.4161 37.7436 51.432 36.4503 49.7633 35.881 48.194 36.303 48.152 36.314 48.116 36.336 48.074 36.348 47.974 36.23 47.88 36.111 47.774 35.993 51.284 31.869 52.674 27.802 51.055 24.993 49.436 22.184 45.216 21.357 39.886 22.337 38.068 17.239 35.24 14 32 14 30.7319 14.0323 29.5124 14.4942 28.541 15.31 26.5106 14.4521 24.1692 15.4025 23.3113 17.4329 22.6582 18.9786 23.0417 20.7678 24.271 21.91 24.217 22.055 24.163 22.198 24.111 22.345 18.784 21.366 14.567 22.196 12.947 25.002 11.327 27.808 12.719 31.877 16.232 36.002 12.719 40.125 11.327 44.194 12.947 47ZM21.709 49.348C21.4231 50.4149 20.3264 51.0481 19.2595 50.7622 18.1926 50.4763 17.5594 49.3796 17.8453 48.3127 18.1312 47.2458 19.2279 46.6126 20.2948 46.8985 20.807 47.0358 21.2438 47.3708 21.509 47.83 21.7761 48.2889 21.8481 48.8356 21.709 49.348ZM24 36C24 34.465 24.08 32.958 24.221 31.492 25.387 30.667 26.644 29.855 28 29.072 29.356 28.289 30.7 27.6 32 27 33.3 27.6 34.639 28.284 36 29.07 37.33 29.838 38.594 30.66 39.794 31.515 39.926 32.939 40 34.434 40 36 40 37.566 39.925 39.071 39.792 40.5 38.622 41.328 37.361 42.143 36 42.929 34.67 43.697 33.325 44.38 31.985 44.992 30.685 44.392 29.356 43.712 28 42.929 26.644 42.146 25.378 41.329 24.208 40.5 24.075 39.071 24 37.572 24 36ZM22.092 38.891C20.9702 37.9931 19.9043 37.0276 18.9 36 19.9071 34.9718 20.9757 34.0057 22.1 33.107 22.038 34.062 22 35.024 22 36 22 36.976 22.038 37.944 22.092 38.891ZM24.553 28.858C24.7735 27.4408 25.0794 26.0383 25.469 24.658 26.8547 25.013 28.2175 25.4518 29.55 25.972 28.703 26.399 27.85 26.846 27 27.338 26.15 27.83 25.342 28.34 24.553 28.858ZM34.453 25.973C35.7915 25.4502 37.1607 25.0097 38.553 24.654 38.9407 26.0386 39.2436 27.4455 39.46 28.867 38.66 28.342 37.847 27.827 37.002 27.339 36.157 26.851 35.3 26.4 34.45 25.973ZM41.912 33.121C43.0285 34.021 44.0897 34.9874 45.09 36.015 44.0891 37.0367 43.0275 37.9971 41.911 38.891 41.962 37.944 42 36.985 42 36 42 35.015 41.963 34.064 41.909 33.121ZM39.458 43.135C39.2415 44.5558 38.9386 45.9621 38.551 47.346 37.1589 46.9894 35.7897 46.5486 34.451 46.026 35.305 45.597 36.158 45.148 37.003 44.661 37.848 44.174 38.665 43.656 39.458 43.135ZM27 44.661C27.847 45.15 28.692 45.599 29.533 46.023 28.1973 46.538 26.8318 46.9721 25.444 47.323 25.0594 45.9455 24.7588 44.5459 24.544 43.132 25.335 43.656 26.147 44.168 27 44.661ZM32 56C29.85 56 27.618 53.505 26.058 49.236 28.0899 48.7062 30.0767 48.0167 32 47.174 33.9227 48.0186 35.9101 48.7075 37.943 49.234 36.383 53.505 34.15 56 32 56ZM49.32 46C48.245 47.863 44.965 48.549 40.484 47.762 41.0455 45.7385 41.4438 43.6732 41.675 41.586 43.1368 40.5095 44.5243 39.3355 45.828 38.072 45.807 38.107 45.779 38.135 45.758 38.172 44.6534 40.0852 45.3089 42.5315 47.2221 43.6361 47.8284 43.9861 48.5159 44.1709 49.216 44.172 49.3855 44.172 49.5549 44.1609 49.723 44.139 49.768 44.785 49.6283 45.4305 49.32 46ZM50.22 38.438C51.1761 38.9911 51.5028 40.2146 50.9497 41.1707 50.6851 41.6281 50.2502 41.9622 49.74 42.1 48.673 42.3856 47.5765 41.7521 47.2909 40.6851 47.0053 39.6181 47.6388 38.5216 48.7058 38.236 49.2181 38.0989 49.7638 38.1708 50.223 38.436ZM49.32 26C50.395 27.862 49.351 31.043 46.433 34.528 44.9581 33.0322 43.3668 31.6559 41.674 30.412 41.4437 28.3254 41.0457 26.2607 40.484 24.238 44.965 23.451 48.245 24.137 49.32 26ZM37.944 22.772C35.9109 23.2972 33.9231 23.9848 32 24.828 30.3371 24.0999 28.6269 23.4852 26.881 22.988 26.922 22.988 26.959 23 27 23 29.2091 23 31 21.2091 31 19 30.9969 18.1277 30.7058 17.2809 30.172 16.591 30.7124 16.2234 31.3467 16.0183 32 16 34.151 16 36.385 18.5 37.944 22.772ZM27 17C28.1046 17 29 17.8954 29 19 29 20.1046 28.1046 21 27 21 25.8954 21 25 20.1046 25 19 25 17.8954 25.8954 17 27 17ZM14.68 26C15.754 24.138 19.031 23.452 23.509 24.236 22.9519 26.2616 22.5553 28.328 22.323 30.416 20.6316 31.6592 19.0429 33.0363 17.572 34.534 14.65 31.046 13.6 27.863 14.68 26ZM17.572 37.466C19.0435 38.9643 20.633 40.342 22.325 41.586 22.5261 43.3908 22.8492 45.1799 23.292 46.941 23.272 46.905 23.262 46.866 23.242 46.83 22.1376 44.9167 19.6913 44.261 17.778 45.3654 17.7777 45.3656 17.7773 45.3658 17.777 45.366L17.777 45.366C17.0237 45.8052 16.4361 46.4803 16.105 47.287 15.5167 47.0032 15.0221 46.5565 14.68 46 13.6 44.137 14.65 40.954 17.572 37.466Z" fill="#FFFFFF"/><path d="M38 36C38 32.6863 35.3137 30 32 30 28.6863 30 26 32.6863 26 36 26 39.3137 28.6863 42 32 42 35.3123 41.9967 37.9967 39.3123 38 36ZM28 36C28 33.7909 29.7909 32 32 32 34.2091 32 36 33.7909 36 36 36 38.2091 34.2091 40 32 40 29.7909 40 28 38.2091 28 36Z" fill="#FFFFFF"/><path d="M53 2 11 2C6.03195 2.00606 2.00606 6.03195 2 11L2 53C2.00606 57.9681 6.03195 61.9939 11 62L53 62C57.9681 61.9939 61.9939 57.9681 62 53L62 11C61.9939 6.03195 57.9681 2.00606 53 2ZM11 4 53 4C56.4782 4.00433 59.4274 6.55811 59.929 10L4.071 10C4.57257 6.55811 7.52176 4.00433 11 4ZM60 53C59.9956 56.8642 56.8642 59.9956 53 60L11 60C7.13583 59.9956 4.00441 56.8642 4 53L4 12 60 12Z" fill="#FFFFFF"/></g></svg>