<svg viewBox="0 0 400 300" xmlns="http://www.w3.org/2000/svg" xmlns:xlink="http://www.w3.org/1999/xlink" id="Layer_1" overflow="hidden"><path d="M90.59 279.55C90.59 279.55 58.28 281.81 45 276.36 31.72 270.91 41.26 255.26 54.19 251.85 67.12 248.44 74.96 267.17 80.74 249.85 86.52 232.53 101.62 223.9 111.27 235.68 120.92 247.46 130.79 251.21 141 240.68 151.21 230.15 160.62 238.75 164.77 254.18 168.92 269.61 216.91 240 235.3 245.78 253.69 251.56 267.64 268.59 278.87 250.21 290.1 231.83 303.38 227.06 310.87 237.95 318.36 248.84 320.74 261.78 334.02 251.95 347.3 242.12 365.34 250.95 360.23 262.5 355.12 274.05 320.9 277.98 320.9 277.98 320.9 277.98 122.22 268.1 90.59 279.55Z" fill="#E6E6E6" opacity="0.42"/><path d="M187.46 221C187.46 221 194.62 244.93 180.66 252 166.7 259.07 158.28 248.06 143.72 257.76 129.16 267.46 136.83 233.76 114.62 235.29 92.41 236.82 100.74 254.43 100.74 254.43 100.74 254.43 81.6 235.74 71.68 252 61.76 268.26 66.55 283.54 111.27 278.94 155.99 274.34 188.8 280.6 227.54 279.77 266.28 278.94 337.54 286.6 341.34 265.16 345.14 243.72 325.26 234.21 304.57 246.23 283.88 258.25 287.35 230.55 263.41 243.23 239.47 255.91 211.15 270.51 203.91 214.43Z" fill="#E6E6E6"/><path d="M138.73 30.61C87.47 41.91 53.32 91.38 62.78 143 67.29 167.64 81.78 192.09 118.19 203.5 205.57 230.9 304.06 217.23 321.43 163.3 338.8 109.37 327.55 74.65 285.17 47.59 257.79 30.11 192.28 18.81 138.73 30.61Z" fill="#24285B"/><path d="M172.66 133.56 131.66 179.31 176.32 179.31 172.66 133.56Z" fill="#68BCFD"/><path d="M222.73 133.56 263.73 179.31 219.07 179.31 222.73 133.56Z" fill="#68BCFD"/><path d="M196.81 60.35 196.81 60.08 196.67 60.22 196.53 60.08 196.53 60.36C192.97 63.94 157.23 103.16 177.82 214.43L217.4 214.43C238 103 200.47 63.86 196.81 60.35Z" fill="#68BCFD"/><path d="M220.76 116.85 221.9 124.73C211.205 129.167 199.616 131.028 188.07 130.16 181.81 129.594 175.697 132.274 171.87 137.26L171.87 137.26C171.87 137.26 173 121 173.81 117.31Z" fill="#3B1E59" opacity="0.11"/><path d="M196.81 60.35 196.81 60.08 196.67 60.22 196.53 60.08 196.53 60.36C192.97 63.94 157.23 103.16 177.82 214.43L217.4 214.43C238 103 200.47 63.86 196.81 60.35Z" fill="#FFFFFF" opacity="0.7"/><path d="M182.91 153.37 171.91 165.76C172.174 176.796 173.287 187.795 175.24 198.66L203.05 178Z" opacity="0.08"/><path d="M176.32 205.86 177.82 214.43 217.76 214.43 219.33 205.86 176.32 205.86Z" fill="#FFD200"/><path d="M175.76 107.13 175.68 107.37C174.558 110.313 173.965 113.431 173.93 116.58L173.81 117.31C173.81 117.31 196.02 129.93 220.76 116.85L220.76 116.85C220.882 116.414 220.939 115.963 220.93 115.51 220.839 112.625 220.208 109.783 219.07 107.13L175.76 107.13Z" fill="#FFD200"/><path d="M176.32 205.86 177.82 214.43 217.76 214.43 219.33 205.86 176.32 205.86Z" fill="#68BCFD"/><path d="M175.76 107.13 175.68 107.37C174.558 110.313 173.965 113.431 173.93 116.58L173.81 117.31C173.81 117.31 196.02 129.93 220.76 116.85L220.76 116.85C220.882 116.414 220.939 115.963 220.93 115.51 220.839 112.625 220.208 109.783 219.07 107.13L175.76 107.13Z" fill="#68BCFD"/><path d="M176.32 205.86 177.82 214.43 217.76 214.43 219.33 205.86 176.32 205.86Z" opacity="0.08"/><path d="M175.76 107.13 175.68 107.37C174.558 110.313 173.965 113.431 173.93 116.58L173.81 117.31C173.81 117.31 196.02 129.93 220.76 116.85L220.76 116.85C220.882 116.414 220.939 115.963 220.93 115.51 220.839 112.625 220.208 109.783 219.07 107.13L175.76 107.13Z" opacity="0.08"/><path d="M175.76 107.13C175.76 107.13 196.76 116.9 219.07 107.13 219.07 107.13 215.94 76.51 201.07 58.9 199.391 56.9202 196.425 56.6761 194.446 58.3549 194.213 58.5521 194 58.7715 193.81 59.01 188.89 65.18 180.27 79.43 175.76 107.13Z" fill="#68BCFD"/><circle cx="197.91" cy="162.06" r="17.25" fill="#68BCFD"/><circle cx="197.91" cy="162.06" r="10.53" fill="#24285B"/><circle cx="200.38" cy="158.35" r="3.71" fill="#FFFFFF" opacity="0.16"/><path d="M177.82 214.43 153.99 243.23 203.91 226.07 203.91 214.43 177.82 214.43Z" fill="#68BCFD"/><path d="M217.57 214.43 241.4 243.23 191.49 226.07 191.49 214.43 217.57 214.43Z" fill="#68BCFD"/><circle cx="95.02" cy="141.03" r="3.23" fill="#FFFFFF"/><circle cx="168.23" cy="45.04" r="3.23" fill="#FFFFFF"/><circle cx="252.13" cy="111.8" r="3.23" fill="#FFFFFF"/><circle cx="241.25" cy="50.84" r="1.55" fill="#FFFFFF"/><circle cx="310.37" cy="128.6" r="1.55" fill="#FFFFFF"/><circle cx="275.81" cy="191.6" r="1.55" fill="#FFFFFF"/><circle cx="151.14" cy="195.81" r="1.55" fill="#FFFFFF"/><circle cx="130.23" cy="88.67" r="31.99" fill="#FFFFFF" opacity="0.08"/><circle cx="130.23" cy="88.67" r="25.36" fill="#FFD200"/><circle cx="121.43" cy="77.53" r="5.32" opacity="0.08"/><circle cx="137.41" cy="77.18" r="3.55" opacity="0.08"/></svg>