<svg width="27" height="26" xmlns="http://www.w3.org/2000/svg" xmlns:xlink="http://www.w3.org/1999/xlink" overflow="hidden"><defs><clipPath id="clip0"><rect x="551" y="308" width="27" height="26"/></clipPath><clipPath id="clip1"><rect x="552" y="308" width="25" height="25"/></clipPath><clipPath id="clip2"><rect x="552" y="308" width="25" height="25"/></clipPath><clipPath id="clip3"><rect x="552" y="308" width="25" height="25"/></clipPath></defs><g clip-path="url(#clip0)" transform="translate(-551 -308)"><g clip-path="url(#clip1)"><g clip-path="url(#clip2)"><g clip-path="url(#clip3)"><path d="M569.188 328.833 559.813 328.833 559.813 312.167 569.188 312.167 569.188 328.833ZM563.458 310.083 565.542 310.083C565.828 310.083 566.063 310.318 566.063 310.604 566.063 310.891 565.828 311.125 565.542 311.125L563.458 311.125C563.172 311.125 562.938 310.891 562.938 310.604 562.938 310.318 563.172 310.083 563.458 310.083ZM570.229 309.042 558.771 309.042C558.484 309.042 558.25 309.276 558.25 309.563L558.25 331.438C558.25 331.724 558.484 331.958 558.771 331.958L570.229 331.958C570.516 331.958 570.75 331.724 570.75 331.438L570.75 309.563C570.75 309.276 570.516 309.042 570.229 309.042Z"/></g></g></g></g></svg>