<svg width="24" height="24" xmlns="http://www.w3.org/2000/svg" xmlns:xlink="http://www.w3.org/1999/xlink" overflow="hidden"><defs><clipPath id="clip0"><rect x="1155" y="581" width="24" height="24"/></clipPath><clipPath id="clip1"><rect x="1156" y="582" width="22" height="23"/></clipPath><clipPath id="clip2"><rect x="1156" y="582" width="22" height="23"/></clipPath><clipPath id="clip3"><rect x="1156" y="582" width="22" height="23"/></clipPath></defs><g clip-path="url(#clip0)" transform="translate(-1155 -581)"><g clip-path="url(#clip1)"><g clip-path="url(#clip2)"><g clip-path="url(#clip3)"><path d="M19.5754 9.15063C19.5754 9.02917 19.5548 8.90771 19.5388 8.78854L19.5388 8.78854C19.5227 8.65563 19.4998 8.52729 19.4746 8.39896 19.4757 8.38523 19.4757 8.37144 19.4746 8.35771 19.4494 8.23167 19.4196 8.10792 19.3875 7.98417L19.3875 7.98417C17.0569 7.14313 14.1533 6.64583 11 6.64583 7.84667 6.64583 4.94313 7.14313 2.62396 7.975L2.62396 7.975C2.59188 8.09875 2.56208 8.2225 2.53688 8.34854 2.5358 8.36227 2.5358 8.37606 2.53688 8.38979 2.51167 8.51812 2.48875 8.64646 2.47271 8.77938L2.47271 8.77938C2.45667 8.89854 2.44521 9.00854 2.43604 9.14146 2.43604 9.17125 2.43604 9.20333 2.43604 9.23313 2.43604 9.35917 2.42229 9.4875 2.42229 9.61583 2.42229 9.74417 2.42229 9.88167 2.43604 10.0123L2.43604 10.104C2.43604 10.2369 2.45896 10.3675 2.475 10.4958 4.71854 9.50813 7.80771 8.9375 11 8.9375 14.1923 8.9375 17.2815 9.50813 19.5342 10.505 19.5502 10.3767 19.564 10.246 19.5731 10.1131L19.5731 10.0215C19.5731 9.89083 19.5869 9.75792 19.5869 9.625 19.5869 9.49208 19.5869 9.36833 19.5731 9.24229 19.58 9.2125 19.5777 9.18042 19.5754 9.15063Z" transform="matrix(1 0 0 1.04545 1156 582)"/><path d="M19.1629 11.3415C17.0248 10.3973 14.0502 9.85417 11 9.85417 7.94979 9.85417 4.97521 10.3973 2.83708 11.3415L2.66521 11.4194C3.34354 13.7042 5.27083 15.3542 7.5625 15.3542L8.9375 15.3542 10.3515 13.9402C10.7092 13.582 11.2896 13.5817 11.6478 13.9395 11.6481 13.9397 11.6483 13.94 11.6485 13.9402L13.0625 15.3542 14.4375 15.3542C16.7292 15.3542 18.6565 13.7042 19.3348 11.4194Z" transform="matrix(1 0 0 1.04545 1156 582)"/><path d="M1.31771 12.556C1.68208 13.1244 2.14958 13.546 2.70875 13.6721 2.57813 13.4017 2.11979 12.4919 1.89521 11.9671 1.67168 12.1304 1.47657 12.3294 1.31771 12.556Z" transform="matrix(1 0 0 1.04545 1156 582)"/><path d="M0.870833 11.6577C1.09908 11.4228 1.35184 11.2131 1.62479 11.0321 1.595 10.8854 1.5675 10.7342 1.55375 10.6081 1.54 10.4821 1.52396 10.3423 1.51021 10.1842L1.51021 10.0787C1.51021 9.90917 1.49646 9.76479 1.49646 9.62042 1.49646 9.47604 1.49646 9.34313 1.51021 9.18271L1.51021 9.07958C1.51021 8.92604 1.53542 8.79313 1.54917 8.67396L1.54917 8.65333C1.56292 8.54333 1.58354 8.42417 1.60417 8.31646 1.42771 8.38521 1.25583 8.45854 1.08625 8.53187 0.699463 8.70609 0.45284 9.09313 0.458333 9.51729L0.458333 9.51729C0.470834 10.2493 0.610411 10.9735 0.870833 11.6577Z" transform="matrix(1 0 0 1.04545 1156 582)"/><path d="M20.6823 12.556C20.3179 13.1244 19.8504 13.546 19.2913 13.6721 19.4219 13.4017 19.8802 12.4919 20.1048 11.9671 20.3283 12.1304 20.5234 12.3294 20.6823 12.556Z" transform="matrix(1 0 0 1.04545 1156 582)"/><path d="M21.1292 11.6577C20.9009 11.4228 20.6482 11.2131 20.3752 11.0321 20.405 10.8854 20.4325 10.7342 20.4463 10.6081 20.46 10.4821 20.476 10.3423 20.4898 10.1842L20.4898 10.0787C20.4898 9.90917 20.5035 9.76479 20.5035 9.62042 20.5035 9.47604 20.5035 9.34313 20.4898 9.18271L20.4898 9.07958C20.4898 8.92604 20.4646 8.79313 20.4508 8.67396L20.4508 8.65333C20.4371 8.54333 20.4165 8.42417 20.3958 8.31646 20.5723 8.38521 20.7442 8.45854 20.9138 8.53187 21.3005 8.70609 21.5472 9.09313 21.5417 9.51729L21.5417 9.51729C21.5292 10.2493 21.3896 10.9735 21.1292 11.6577Z" transform="matrix(1 0 0 1.04545 1156 582)"/></g></g></g></g></svg>