<svg width="1249.33" height="1249.33" viewBox="0 -62 937.5 937" xmlns="http://www.w3.org/2000/svg" xmlns:xlink="http://www.w3.org/1999/xlink" overflow="hidden"><g id="surface1"><path d="M31.25 62.75C31.25 45.4883 45.2383 31.5 62.5 31.5L812.5 31.5C829.762 31.5 843.75 45.4883 843.75 62.75L843.75 281.5 875 281.5 875 62.75C875 28.2344 847.016 0.25 812.5 0.25L62.5 0.25C27.9844 0.25 0 28.2344 0 62.75L0 594C0 628.516 27.9844 656.5 62.5 656.5L338.375 656.5 300.875 781.5 265.625 781.5 265.625 812.75 609.375 812.75 609.375 781.5 574.125 781.5 536.625 656.5 609.375 656.5 609.375 625.25 62.5 625.25C45.2383 625.25 31.25 611.262 31.25 594L31.25 562.75 609.375 562.75 609.375 531.5 31.25 531.5ZM371 656.5 504 656.5 541.5 781.5 333.5 781.5Z" fill="#FFFFFF"/><path d="M812.5 281.5 812.5 78.375C812.5 69.7422 805.508 62.75 796.875 62.75L78.125 62.75C69.4922 62.75 62.5 69.7422 62.5 78.375L62.5 500.25 93.75 500.25 93.75 219 781.25 219 781.25 281.5ZM93.75 187.75 93.75 94 781.25 94 781.25 187.75Z" fill="#FFFFFF"/><path d="M140.625 125.25 234.375 125.25 234.375 156.5 140.625 156.5Z" fill="#FFFFFF"/><path d="M265.625 125.25 359.375 125.25 359.375 156.5 265.625 156.5Z" fill="#FFFFFF"/><path d="M390.625 125.25 484.375 125.25 484.375 156.5 390.625 156.5Z" fill="#FFFFFF"/><path d="M515.625 125.25 609.375 125.25 609.375 156.5 515.625 156.5Z" fill="#FFFFFF"/><path d="M312.5 265.875C312.5 257.242 305.508 250.25 296.875 250.25L140.625 250.25C131.992 250.25 125 257.242 125 265.875L125 390.875C125 399.508 131.992 406.5 140.625 406.5L296.875 406.5C305.508 406.5 312.5 399.508 312.5 390.875ZM281.25 375.25 156.25 375.25 156.25 281.5 281.25 281.5Z" fill="#FFFFFF"/><path d="M531.25 265.875C531.25 257.242 524.258 250.25 515.625 250.25L359.375 250.25C350.742 250.25 343.75 257.242 343.75 265.875L343.75 390.875C343.75 399.508 350.742 406.5 359.375 406.5L515.625 406.5C524.258 406.5 531.25 399.508 531.25 390.875ZM500 375.25 375 375.25 375 281.5 500 281.5Z" fill="#FFFFFF"/><path d="M593.75 281.5 750 281.5 750 265.875C750 257.242 743.008 250.25 734.375 250.25L578.125 250.25C569.492 250.25 562.5 257.242 562.5 265.875L562.5 390.875C562.5 399.508 569.492 406.5 578.125 406.5L609.375 406.5 609.375 375.25 593.75 375.25Z" fill="#FFFFFF"/><path d="M312.5 500.25 312.5 453.375C312.5 444.742 305.508 437.75 296.875 437.75L140.625 437.75C131.992 437.75 125 444.742 125 453.375L125 500.25 156.25 500.25 156.25 469 281.25 469 281.25 500.25Z" fill="#FFFFFF"/><path d="M531.25 500.25 531.25 453.375C531.25 444.742 524.258 437.75 515.625 437.75L359.375 437.75C350.742 437.75 343.75 444.742 343.75 453.375L343.75 500.25 375 500.25 375 469 500 469 500 500.25Z" fill="#FFFFFF"/><path d="M562.5 453.375 562.5 500.25 593.75 500.25 593.75 469 609.375 469 609.375 437.75 578.125 437.75C569.492 437.75 562.5 444.742 562.5 453.375Z" fill="#FFFFFF"/><path d="M875 312.75 703.125 312.75C668.609 312.75 640.625 340.734 640.625 375.25L640.625 750.25C640.625 784.766 668.609 812.75 703.125 812.75L875 812.75C909.516 812.75 937.5 784.766 937.5 750.25L937.5 375.25C937.5 340.734 909.516 312.75 875 312.75ZM906.25 750.25C906.25 767.512 892.262 781.5 875 781.5L703.125 781.5C685.863 781.5 671.875 767.512 671.875 750.25L671.875 734.625 906.25 734.625ZM906.25 703.375 671.875 703.375 671.875 375.25C671.875 357.988 685.863 344 703.125 344L875 344C892.262 344 906.25 357.988 906.25 375.25Z" fill="#FFFFFF"/><path d="M859.375 437.75 718.75 437.75C710.117 437.75 703.125 444.742 703.125 453.375L703.125 578.375C703.125 587.008 710.117 594 718.75 594L859.375 594C868.008 594 875 587.008 875 578.375L875 453.375C875 444.742 868.008 437.75 859.375 437.75ZM843.75 562.75 734.375 562.75 734.375 469 843.75 469Z" fill="#FFFFFF"/><path d="M859.375 625.25 718.75 625.25C710.117 625.25 703.125 632.242 703.125 640.875L703.125 672.125 734.375 672.125 734.375 656.5 843.75 656.5 843.75 672.125 875 672.125 875 640.875C875 632.242 868.008 625.25 859.375 625.25Z" fill="#FFFFFF"/><path d="M703.125 375.25 875 375.25 875 406.5 703.125 406.5Z" fill="#FFFFFF"/></g></svg>